<?xml version="1.0" encoding="utf-8"?>
<!-- Generator: Adobe Illustrator 21.0.0, SVG Export Plug-In . SVG Version: 6.00 Build 0)  -->
<svg version="1.1" id="图层_1" xmlns="http://www.w3.org/2000/svg" xmlns:xlink="http://www.w3.org/1999/xlink" x="0px" y="0px"
	 viewBox="0 0 750 1334" style="enable-background:new 0 0 750 1334;" xml:space="preserve">
<style type="text/css">
	.st0{fill:none;stroke:#FFFFFF;stroke-width:0.75;stroke-linejoin:bevel;stroke-dasharray:2.9903,0.9968;}
	.st1{fill:none;}
	.st2{fill:#FFFFFF;}
	.st3{font-family:'Code-Bold';}
	.st4{font-size:102px;}
	.st5{display:none;}
	.st6{display:inline;fill:none;stroke:#FFFFFF;stroke-width:0.75;stroke-linejoin:bevel;stroke-dasharray:2.9903,0.9968;}
	.st7{display:inline;}
</style>
<rect x="130.3" y="243.6" class="st0" width="140" height="210"/>
<rect x="185.6" y="295.6" class="st1" width="29.4" height="94.4"/>
<text transform="matrix(1 0 0 1 186.6014 382.3356)" class="st2 st3 st4">1</text>
<rect x="298.3" y="243.6" class="st0" width="140" height="210"/>
<rect x="337.8" y="294.9" class="st1" width="61" height="94.4"/>
<text transform="matrix(1 0 0 1 341.2253 381.6132)" class="st2 st3 st4">2</text>
<rect x="466.3" y="243.6" class="st0" width="140" height="210"/>
<rect x="508.7" y="293.8" class="st1" width="55.3" height="96.7"/>
<text transform="matrix(1 0 0 1 509.8218 380.4825)" class="st2 st3 st4">3</text>
<g class="st5">
	<rect x="877.8" y="146.1" class="st6" width="140" height="210"/>
	<rect x="920.1" y="196.3" style="display:inline;fill:none;" width="55.3" height="96.7"/>
	<text transform="matrix(1 0 0 1 920.7791 283.0007)" class="st3 st4" style="display:inline;fill:#FFFFFF;">4</text>
</g>
<g class="st5">
	<rect x="1057.3" y="27.1" class="st6" width="140" height="210"/>
	<rect x="1102.7" y="77.2" style="display:inline;fill:none;" width="55" height="96.7"/>
	<text transform="matrix(1 0 0 1 1102.9686 163.9379)" class="st3 st4" style="display:inline;fill:#FFFFFF;">5</text>
</g>
</svg>
