<?xml version="1.0" encoding="utf-8"?>
<!-- Generator: Adobe Illustrator 21.0.0, SVG Export Plug-In . SVG Version: 6.00 Build 0)  -->
<svg version="1.1" id="图层_1" xmlns="http://www.w3.org/2000/svg" xmlns:xlink="http://www.w3.org/1999/xlink" x="0px" y="0px"
	 viewBox="0 0 750 1334" style="enable-background:new 0 0 750 1334;" xml:space="preserve">
<style type="text/css">
	.st0{fill:none;stroke:#FFFFFF;stroke-width:0.75;stroke-linejoin:bevel;}
	.st1{fill:none;stroke:#FFFFFF;stroke-width:0.75;stroke-linejoin:bevel;stroke-dasharray:2.0051,0.9993;}
	.st2{fill:none;stroke:#FFFFFF;stroke-width:0.75;stroke-linejoin:bevel;stroke-dasharray:2.005,0.9993;}
	.st3{fill:none;}
	.st4{fill:#FFFFFF;}
	.st5{font-family:'Code-Bold';}
	.st6{font-size:48.45px;}
	.st7{fill:none;stroke:#FFFFFF;stroke-width:0.75;stroke-linejoin:bevel;stroke-dasharray:1.9878,0.9907;}
	.st8{fill:none;stroke:#FFFFFF;stroke-width:0.75;stroke-linejoin:bevel;stroke-dasharray:2.0022,0.9979;}
	.st9{font-size:48.7207px;}
</style>
<g>
	<g>
		<g>
			<polyline class="st0" points="516.8,459.2 516.8,459.9 516,459.9 			"/>
			<line class="st1" x1="515.3" y1="459.9" x2="451.3" y2="459.9"/>
			<polyline class="st0" points="451,459.9 450.2,459.9 450.2,459.2 			"/>
			<line class="st2" x1="450.2" y1="458.5" x2="450.2" y2="361.3"/>
			<polyline class="st0" points="450.2,360.9 450.2,360.2 451,360.2 			"/>
			<line class="st1" x1="451.7" y1="360.2" x2="515.7" y2="360.2"/>
			<polyline class="st0" points="516,360.2 516.8,360.2 516.8,360.9 			"/>
			<line class="st2" x1="516.8" y1="361.7" x2="516.8" y2="458.8"/>
		</g>
	</g>
	<rect x="471.8" y="384" class="st3" width="26.1" height="45.9"/>
	<text transform="matrix(1 0 0 1 472.582 425.1649)" class="st4 st5 st6">7</text>
</g>
<g>
	<g>
		<g>
			<polyline class="st0" points="388.4,705.6 388.4,706.1 388,706.1 			"/>
			<line class="st7" x1="387.4" y1="706.1" x2="322.3" y2="706.1"/>
			<polyline class="st0" points="322.1,706.1 321.6,706.1 321.6,705.6 			"/>
			<line class="st8" x1="321.6" y1="705.1" x2="321.6" y2="606.5"/>
			<polyline class="st0" points="321.6,606.2 321.6,605.8 322.1,605.8 			"/>
			<line class="st7" x1="322.5" y1="605.8" x2="387.7" y2="605.8"/>
			<polyline class="st0" points="388,605.8 388.4,605.8 388.4,606.2 			"/>
			<line class="st8" x1="388.4" y1="606.7" x2="388.4" y2="705.3"/>
		</g>
	</g>
	<rect x="348" y="630.6" class="st3" width="14" height="45.1"/>
	<text transform="matrix(1 0 0 1 348.4312 672.0165)" class="st4 st5 st9">1</text>
</g>
<g>
	<g>
		<g>
			<polyline class="st0" points="308.2,581.8 308.2,582.3 307.8,582.3 			"/>
			<line class="st7" x1="307.2" y1="582.3" x2="242.1" y2="582.3"/>
			<polyline class="st0" points="241.9,582.3 241.3,582.3 241.3,581.8 			"/>
			<line class="st8" x1="241.3" y1="581.4" x2="241.3" y2="482.7"/>
			<polyline class="st0" points="241.3,482.5 241.3,482 241.9,482 			"/>
			<line class="st7" x1="242.3" y1="482" x2="307.5" y2="482"/>
			<polyline class="st0" points="307.8,482 308.2,482 308.2,482.5 			"/>
			<line class="st8" x1="308.2" y1="483" x2="308.2" y2="581.6"/>
		</g>
	</g>
	<rect x="259.8" y="505.9" class="st3" width="26.4" height="46.2"/>
	<text transform="matrix(1 0 0 1 260.0825 547.3553)" class="st4 st5 st9">4</text>
</g>
<g>
	<g>
		<polyline class="st0" points="241,459.1 241,459.5 240.5,459.5 		"/>
		<line class="st7" x1="240.1" y1="459.5" x2="174.9" y2="459.5"/>
		<polyline class="st0" points="174.6,459.5 174.1,459.5 174.1,459.1 		"/>
		<line class="st8" x1="174.1" y1="458.5" x2="174.1" y2="360"/>
		<polyline class="st0" points="174.1,359.7 174.1,359.2 174.6,359.2 		"/>
		<line class="st7" x1="175.1" y1="359.2" x2="240.3" y2="359.2"/>
		<polyline class="st0" points="240.5,359.2 241,359.2 241,359.7 		"/>
		<line class="st8" x1="241" y1="360.2" x2="241" y2="458.8"/>
	</g>
	<rect x="193.5" y="383.1" class="st3" width="28.1" height="46.2"/>
	<text transform="matrix(1 0 0 1 194.4004 424.5794)" class="st4 st5 st9">6</text>
</g>
<g>
	<g>
		<g>
			<polyline class="st0" points="602.5,581.6 602.5,582.1 602.1,582.1 			"/>
			<line class="st7" x1="601.5" y1="582.1" x2="536.4" y2="582.1"/>
			<polyline class="st0" points="536.1,582.1 535.7,582.1 535.7,581.6 			"/>
			<line class="st8" x1="535.7" y1="581.2" x2="535.7" y2="482.5"/>
			<polyline class="st0" points="535.7,482.3 535.7,481.8 536.1,481.8 			"/>
			<line class="st7" x1="536.6" y1="481.8" x2="601.8" y2="481.8"/>
			<polyline class="st0" points="602.1,481.8 602.5,481.8 602.5,482.3 			"/>
			<line class="st8" x1="602.5" y1="482.7" x2="602.5" y2="581.4"/>
		</g>
	</g>
	<rect x="557.3" y="505.8" class="st3" width="26.3" height="46.2"/>
	<text transform="matrix(1 0 0 1 557.46 547.1786)" class="st4 st5 st9">5</text>
</g>
<g>
	<g>
		<g>
			<polyline class="st0" points="174.1,582 174.1,582.5 173.6,582.5 			"/>
			<line class="st7" x1="173.2" y1="582.5" x2="107.9" y2="582.5"/>
			<polyline class="st0" points="107.7,582.5 107.2,582.5 107.2,582 			"/>
			<line class="st8" x1="107.2" y1="581.6" x2="107.2" y2="482.9"/>
			<polyline class="st0" points="107.2,482.7 107.2,482.2 107.7,482.2 			"/>
			<line class="st7" x1="108.2" y1="482.2" x2="173.4" y2="482.2"/>
			<polyline class="st0" points="173.6,482.2 174.1,482.2 174.1,482.7 			"/>
			<line class="st8" x1="174.1" y1="483.1" x2="174.1" y2="581.8"/>
		</g>
	</g>
	<rect x="126" y="506.7" class="st3" width="29.1" height="45.1"/>
	<text transform="matrix(1 0 0 1 127.7002 548.1107)" class="st4 st5 st9">2</text>
</g>
<g>
	<g>
		<g>
			<polyline class="st0" points="468.6,581.4 468.6,581.9 468.1,581.9 			"/>
			<line class="st7" x1="467.7" y1="581.9" x2="402.4" y2="581.9"/>
			<polyline class="st0" points="402.2,581.9 401.8,581.9 401.8,581.4 			"/>
			<line class="st8" x1="401.8" y1="580.9" x2="401.8" y2="482.3"/>
			<polyline class="st0" points="401.8,482.1 401.8,481.6 402.2,481.6 			"/>
			<line class="st7" x1="402.7" y1="481.6" x2="467.9" y2="481.6"/>
			<polyline class="st0" points="468.1,481.6 468.6,481.6 468.6,482.1 			"/>
			<line class="st8" x1="468.6" y1="482.5" x2="468.6" y2="581.2"/>
		</g>
	</g>
	<rect x="420.6" y="506.1" class="st3" width="29.1" height="45.1"/>
	<text transform="matrix(1 0 0 1 422.5312 547.4838)" class="st4 st5 st9">3</text>
</g>
</svg>
