<?xml version="1.0" encoding="utf-8"?>
<!-- Generator: Adobe Illustrator 21.0.0, SVG Export Plug-In . SVG Version: 6.00 Build 0)  -->
<svg version="1.1" id="图层_1" xmlns="http://www.w3.org/2000/svg" xmlns:xlink="http://www.w3.org/1999/xlink" x="0px" y="0px"
	 viewBox="0 0 750 1334" style="enable-background:new 0 0 750 1334;" xml:space="preserve">
<style type="text/css">
	.st0{fill:none;stroke:#FFFFFF;stroke-width:0.75;stroke-linejoin:bevel;}
	.st1{fill:none;stroke:#FFFFFF;stroke-width:0.75;stroke-linejoin:bevel;stroke-dasharray:2.0051,0.9993;}
	.st2{fill:none;stroke:#FFFFFF;stroke-width:0.75;stroke-linejoin:bevel;stroke-dasharray:2.005,0.9993;}
	.st3{fill:none;}
	.st4{fill:#FFFFFF;}
	.st5{font-family:'Code-Bold';}
	.st6{font-size:49.9141px;}
	.st7{fill:none;stroke:#FFFFFF;stroke-width:0.75;stroke-linejoin:bevel;stroke-dasharray:1.9878,0.9907;}
	.st8{fill:none;stroke:#FFFFFF;stroke-width:0.75;stroke-linejoin:bevel;stroke-dasharray:2.0022,0.9979;}
	.st9{font-size:50.193px;}
</style>
<g>
	<g>
		<g>
			<polyline class="st0" points="553.5,516.9 553.5,517.7 552.7,517.7 			"/>
			<line class="st1" x1="552" y1="517.7" x2="486" y2="517.7"/>
			<polyline class="st0" points="485.7,517.7 484.9,517.7 484.9,516.9 			"/>
			<line class="st2" x1="484.9" y1="516.2" x2="484.9" y2="416"/>
			<polyline class="st0" points="484.9,415.7 484.9,414.9 485.7,414.9 			"/>
			<line class="st1" x1="486.4" y1="414.9" x2="552.3" y2="414.9"/>
			<polyline class="st0" points="552.7,414.9 553.5,414.9 553.5,415.7 			"/>
			<line class="st2" x1="553.5" y1="416.4" x2="553.5" y2="516.5"/>
		</g>
	</g>
	<rect x="507.1" y="439.5" class="st3" width="26.9" height="47.3"/>
	<text transform="matrix(1 0 0 1 507.9364 481.8453)" class="st4 st5 st6">7</text>
</g>
<g>
	<g>
		<g>
			<polyline class="st0" points="586.2,400.2 586.2,400.9 585.4,400.9 			"/>
			<line class="st1" x1="584.6" y1="400.9" x2="518.8" y2="400.9"/>
			<polyline class="st0" points="518.4,400.9 517.7,400.9 517.7,400.2 			"/>
			<line class="st2" x1="517.7" y1="399.4" x2="517.7" y2="299.3"/>
			<polyline class="st0" points="517.7,298.9 517.7,298.2 518.4,298.2 			"/>
			<line class="st1" x1="519.2" y1="298.2" x2="585" y2="298.2"/>
			<polyline class="st0" points="585.4,298.2 586.2,298.2 586.2,298.9 			"/>
			<line class="st2" x1="586.2" y1="299.7" x2="586.2" y2="399.8"/>
		</g>
	</g>
	<rect x="539.9" y="322.7" class="st3" width="26.9" height="47.3"/>
	<text transform="matrix(1 0 0 1 540.0389 365.1089)" class="st4 st5 st6">8</text>
</g>
<g>
	<g>
		<g>
			<polyline class="st0" points="409.7,401.1 409.7,401.5 409.2,401.5 			"/>
			<line class="st7" x1="408.7" y1="401.5" x2="341.6" y2="401.5"/>
			<polyline class="st0" points="341.3,401.5 340.8,401.5 340.8,401.1 			"/>
			<line class="st8" x1="340.8" y1="400.5" x2="340.8" y2="298.9"/>
			<polyline class="st0" points="340.8,298.7 340.8,298.2 341.3,298.2 			"/>
			<line class="st7" x1="341.8" y1="298.2" x2="409" y2="298.2"/>
			<polyline class="st0" points="409.2,298.2 409.7,298.2 409.7,298.7 			"/>
			<line class="st8" x1="409.7" y1="299.1" x2="409.7" y2="400.7"/>
		</g>
	</g>
	<rect x="368" y="323.7" class="st3" width="14.4" height="46.4"/>
	<text transform="matrix(1 0 0 1 368.4793 366.4278)" class="st4 st5 st9">1</text>
</g>
<g>
	<g>
		<g>
			<polyline class="st0" points="299.4,637.7 299.4,638.1 299,638.1 			"/>
			<line class="st7" x1="298.4" y1="638.1" x2="231.3" y2="638.1"/>
			<polyline class="st0" points="231.1,638.1 230.6,638.1 230.6,637.7 			"/>
			<line class="st8" x1="230.6" y1="637.2" x2="230.6" y2="535.6"/>
			<polyline class="st0" points="230.6,535.4 230.6,534.8 231.1,534.8 			"/>
			<line class="st7" x1="231.6" y1="534.8" x2="298.7" y2="534.8"/>
			<polyline class="st0" points="299,534.8 299.4,534.8 299.4,535.4 			"/>
			<line class="st8" x1="299.4" y1="535.8" x2="299.4" y2="637.5"/>
		</g>
	</g>
	<rect x="249.6" y="559.5" class="st3" width="27.2" height="47.6"/>
	<text transform="matrix(1 0 0 1 249.867 602.1597)" class="st4 st5 st9">4</text>
</g>
<g>
	<g>
		<polyline class="st0" points="519.4,636.2 519.4,636.7 518.9,636.7 		"/>
		<line class="st7" x1="518.4" y1="636.7" x2="451.3" y2="636.7"/>
		<polyline class="st0" points="451,636.7 450.5,636.7 450.5,636.2 		"/>
		<line class="st8" x1="450.5" y1="635.7" x2="450.5" y2="534.1"/>
		<polyline class="st0" points="450.5,533.8 450.5,533.4 451,533.4 		"/>
		<line class="st7" x1="451.5" y1="533.4" x2="518.7" y2="533.4"/>
		<polyline class="st0" points="518.9,533.4 519.4,533.4 519.4,533.8 		"/>
		<line class="st8" x1="519.4" y1="534.4" x2="519.4" y2="636"/>
	</g>
	<rect x="470.5" y="558" class="st3" width="29" height="47.6"/>
	<text transform="matrix(1 0 0 1 471.3797 600.7154)" class="st4 st5 st9">6</text>
</g>
<g>
	<g>
		<g>
			<polyline class="st0" points="409.6,728.2 409.6,728.7 409.1,728.7 			"/>
			<line class="st7" x1="408.6" y1="728.7" x2="341.5" y2="728.7"/>
			<polyline class="st0" points="341.2,728.7 340.7,728.7 340.7,728.2 			"/>
			<line class="st8" x1="340.7" y1="727.7" x2="340.7" y2="626.1"/>
			<polyline class="st0" points="340.7,625.8 340.7,625.3 341.2,625.3 			"/>
			<line class="st7" x1="341.7" y1="625.3" x2="408.8" y2="625.3"/>
			<polyline class="st0" points="409.1,625.3 409.6,625.3 409.6,625.8 			"/>
			<line class="st8" x1="409.6" y1="626.3" x2="409.6" y2="727.9"/>
		</g>
	</g>
	<rect x="363.1" y="650" class="st3" width="27.1" height="47.6"/>
	<text transform="matrix(1 0 0 1 363.2005 692.6841)" class="st4 st5 st9">5</text>
</g>
<g>
	<g>
		<g>
			<polyline class="st0" points="232.8,400.5 232.8,401.1 232.3,401.1 			"/>
			<line class="st7" x1="231.8" y1="401.1" x2="164.6" y2="401.1"/>
			<polyline class="st0" points="164.4,401.1 163.8,401.1 163.8,400.5 			"/>
			<line class="st8" x1="163.8" y1="400.1" x2="163.8" y2="298.4"/>
			<polyline class="st0" points="163.8,298.2 163.8,297.7 164.4,297.7 			"/>
			<line class="st7" x1="164.8" y1="297.7" x2="232" y2="297.7"/>
			<polyline class="st0" points="232.3,297.7 232.8,297.7 232.8,298.2 			"/>
			<line class="st8" x1="232.8" y1="298.7" x2="232.8" y2="400.3"/>
		</g>
	</g>
	<rect x="183.2" y="322.9" class="st3" width="30" height="46.4"/>
	<text transform="matrix(1 0 0 1 184.9569 365.5884)" class="st4 st5 st9">2</text>
</g>
<g>
	<g>
		<g>
			<polyline class="st0" points="265.7,518.4 265.7,518.9 265.2,518.9 			"/>
			<line class="st7" x1="264.7" y1="518.9" x2="197.5" y2="518.9"/>
			<polyline class="st0" points="197.3,518.9 196.8,518.9 196.8,518.4 			"/>
			<line class="st8" x1="196.8" y1="517.9" x2="196.8" y2="416.3"/>
			<polyline class="st0" points="196.8,416.1 196.8,415.5 197.3,415.5 			"/>
			<line class="st7" x1="197.7" y1="415.5" x2="264.9" y2="415.5"/>
			<polyline class="st0" points="265.2,415.5 265.7,415.5 265.7,416.1 			"/>
			<line class="st8" x1="265.7" y1="416.5" x2="265.7" y2="518.1"/>
		</g>
	</g>
	<rect x="216.2" y="440.8" class="st3" width="30" height="46.4"/>
	<text transform="matrix(1 0 0 1 218.2166 483.4468)" class="st4 st5 st9">3</text>
</g>
</svg>
