<?xml version="1.0" encoding="utf-8"?>
<!-- Generator: Adobe Illustrator 21.0.0, SVG Export Plug-In . SVG Version: 6.00 Build 0)  -->
<svg version="1.1" id="图层_1" xmlns="http://www.w3.org/2000/svg" xmlns:xlink="http://www.w3.org/1999/xlink" x="0px" y="0px"
	 viewBox="0 0 750 1334" style="enable-background:new 0 0 750 1334;" xml:space="preserve">
<style type="text/css">
	.st0{fill:none;stroke:#FFFFFF;stroke-width:0.75;stroke-linejoin:bevel;}
	.st1{fill:none;stroke:#FFFFFF;stroke-width:0.75;stroke-linejoin:bevel;stroke-dasharray:1.9878,0.9907;}
	.st2{fill:none;stroke:#FFFFFF;stroke-width:0.75;stroke-linejoin:bevel;stroke-dasharray:2.0022,0.9979;}
	.st3{fill:none;}
	.st4{fill:#FFFFFF;}
	.st5{font-family:'Code-Bold';}
	.st6{font-size:102px;}
</style>
<g>
	<g>
		<polyline class="st0" points="265.7,548.7 265.7,549.7 264.7,549.7 		"/>
		<line class="st1" x1="263.7" y1="549.7" x2="127.2" y2="549.7"/>
		<polyline class="st0" points="126.7,549.7 125.7,549.7 125.7,548.7 		"/>
		<line class="st2" x1="125.7" y1="547.7" x2="125.7" y2="341.2"/>
		<polyline class="st0" points="125.7,340.7 125.7,339.7 126.7,339.7 		"/>
		<line class="st1" x1="127.7" y1="339.7" x2="264.2" y2="339.7"/>
		<polyline class="st0" points="264.7,339.7 265.7,339.7 265.7,340.7 		"/>
		<line class="st2" x1="265.7" y1="341.7" x2="265.7" y2="548.2"/>
	</g>
</g>
<rect x="181" y="391.7" class="st3" width="29.4" height="94.4"/>
<text transform="matrix(1 0 0 1 181.9423 478.3723)" class="st4 st5 st6">1</text>
<g>
	<g>
		<g>
			<polyline class="st0" points="423.3,346 423.3,347 422.3,347 			"/>
			<line class="st1" x1="421.3" y1="347" x2="284.8" y2="347"/>
			<polyline class="st0" points="284.3,347 283.3,347 283.3,346 			"/>
			<line class="st2" x1="283.3" y1="345" x2="283.3" y2="138.5"/>
			<polyline class="st0" points="283.3,138 283.3,137 284.3,137 			"/>
			<line class="st1" x1="285.3" y1="137" x2="421.8" y2="137"/>
			<polyline class="st0" points="422.3,137 423.3,137 423.3,138 			"/>
			<line class="st2" x1="423.3" y1="139" x2="423.3" y2="345.5"/>
		</g>
	</g>
	<rect x="322.8" y="188.3" class="st3" width="61" height="94.4"/>
	<text transform="matrix(1 0 0 1 326.8524 274.9657)" class="st4 st5 st6">3</text>
</g>
<g>
	<g>
		<polyline class="st0" points="423.3,756.2 423.3,757.2 422.3,757.2 		"/>
		<line class="st1" x1="421.3" y1="757.2" x2="284.8" y2="757.2"/>
		<polyline class="st0" points="284.3,757.2 283.3,757.2 283.3,756.2 		"/>
		<line class="st2" x1="283.3" y1="755.2" x2="283.3" y2="548.7"/>
		<polyline class="st0" points="283.3,548.2 283.3,547.2 284.3,547.2 		"/>
		<line class="st1" x1="285.3" y1="547.2" x2="421.8" y2="547.2"/>
		<polyline class="st0" points="422.3,547.2 423.3,547.2 423.3,548.2 		"/>
		<line class="st2" x1="423.3" y1="549.2" x2="423.3" y2="755.7"/>
	</g>
</g>
<rect x="321.9" y="597.3" class="st3" width="55.3" height="96.7"/>
<text transform="matrix(1 0 0 1 322.5387 684.0175)" class="st4 st5 st6">4</text>
<g>
	<g>
		<polyline class="st0" points="270.2,976.1 270.2,977.1 269.2,977.1 		"/>
		<line class="st1" x1="268.2" y1="977.1" x2="131.7" y2="977.1"/>
		<polyline class="st0" points="131.2,977.1 130.2,977.1 130.2,976.1 		"/>
		<line class="st2" x1="130.2" y1="975.1" x2="130.2" y2="768.6"/>
		<polyline class="st0" points="130.2,768.1 130.2,767.1 131.2,767.1 		"/>
		<line class="st1" x1="132.1" y1="767.1" x2="268.7" y2="767.1"/>
		<polyline class="st0" points="269.2,767.1 270.2,767.1 270.2,768.1 		"/>
		<line class="st2" x1="270.2" y1="769.1" x2="270.2" y2="975.6"/>
	</g>
</g>
<rect x="170.8" y="817.3" class="st3" width="58.8" height="96.7"/>
<text transform="matrix(1 0 0 1 172.5172 903.9504)" class="st4 st5 st6">6</text>
<g>
	<g>
		<polyline class="st0" points="424.3,976.1 424.3,977.1 423.3,977.1 		"/>
		<line class="st1" x1="422.3" y1="977.1" x2="285.8" y2="977.1"/>
		<polyline class="st0" points="285.3,977.1 284.3,977.1 284.3,976.1 		"/>
		<line class="st2" x1="284.3" y1="975.1" x2="284.3" y2="768.6"/>
		<polyline class="st0" points="284.3,768.1 284.3,767.1 285.3,767.1 		"/>
		<line class="st1" x1="286.3" y1="767.1" x2="422.8" y2="767.1"/>
		<polyline class="st0" points="423.3,767.1 424.3,767.1 424.3,768.1 		"/>
		<line class="st2" x1="424.3" y1="769.1" x2="424.3" y2="975.6"/>
	</g>
</g>
<rect x="329.7" y="817.3" class="st3" width="55" height="96.7"/>
<text transform="matrix(1 0 0 1 329.9359 903.9504)" class="st4 st5 st6">5</text>
<g>
	<g>
		<polyline class="st0" points="581,548.7 581,549.7 580,549.7 		"/>
		<line class="st1" x1="579" y1="549.7" x2="442.5" y2="549.7"/>
		<polyline class="st0" points="442,549.7 441,549.7 441,548.7 		"/>
		<line class="st2" x1="441" y1="547.7" x2="441" y2="341.2"/>
		<polyline class="st0" points="441,340.7 441,339.7 442,339.7 		"/>
		<line class="st1" x1="443" y1="339.7" x2="579.5" y2="339.7"/>
		<polyline class="st0" points="580,339.7 581,339.7 581,340.7 		"/>
		<line class="st2" x1="581" y1="341.7" x2="581" y2="548.2"/>
	</g>
</g>
<rect x="480.1" y="391" class="st3" width="61" height="94.4"/>
<text transform="matrix(1 0 0 1 483.5634 477.6498)" class="st4 st5 st6">2</text>
<g>
	<g>
		<polyline class="st0" points="578.5,976.1 578.5,977.1 577.5,977.1 		"/>
		<line class="st1" x1="576.5" y1="977.1" x2="440" y2="977.1"/>
		<polyline class="st0" points="439.5,977.1 438.5,977.1 438.5,976.1 		"/>
		<line class="st2" x1="438.5" y1="975.1" x2="438.5" y2="768.6"/>
		<polyline class="st0" points="438.5,768.1 438.5,767.1 439.5,767.1 		"/>
		<line class="st1" x1="440.5" y1="767.1" x2="577" y2="767.1"/>
		<polyline class="st0" points="577.5,767.1 578.5,767.1 578.5,768.1 		"/>
		<line class="st2" x1="578.5" y1="769.1" x2="578.5" y2="975.6"/>
	</g>
</g>
<rect x="483.8" y="817.3" class="st3" width="55" height="96.7"/>
<text transform="matrix(1 0 0 1 485.4634 903.9504)" class="st4 st5 st6">7</text>
<g>
	<g>
		<polyline class="st0" points="423.3,1196 423.3,1197 422.3,1197 		"/>
		<line class="st1" x1="421.3" y1="1197" x2="284.8" y2="1197"/>
		<polyline class="st0" points="284.3,1197 283.3,1197 283.3,1196 		"/>
		<line class="st2" x1="283.3" y1="1195" x2="283.3" y2="988.5"/>
		<polyline class="st0" points="283.3,988 283.3,987 284.3,987 		"/>
		<line class="st1" x1="285.3" y1="987" x2="421.8" y2="987"/>
		<polyline class="st0" points="422.3,987 423.3,987 423.3,988 		"/>
		<line class="st2" x1="423.3" y1="989" x2="423.3" y2="1195.5"/>
	</g>
</g>
<rect x="328.7" y="1037.2" class="st3" width="55" height="96.7"/>
<text transform="matrix(1 0 0 1 328.9867 1123.8834)" class="st4 st5 st6">8</text>
</svg>
