<?xml version="1.0" encoding="utf-8"?>
<!-- Generator: Adobe Illustrator 21.0.0, SVG Export Plug-In . SVG Version: 6.00 Build 0)  -->
<svg version="1.1" id="图层_1" xmlns="http://www.w3.org/2000/svg" xmlns:xlink="http://www.w3.org/1999/xlink" x="0px" y="0px"
	 viewBox="0 0 750 1334" style="enable-background:new 0 0 750 1334;" xml:space="preserve">
<style type="text/css">
	.st0{fill:none;stroke:#FFFFFF;stroke-width:0.75;stroke-linejoin:bevel;}
	.st1{fill:none;stroke:#FFFFFF;stroke-width:0.75;stroke-linejoin:bevel;stroke-dasharray:1.9878,0.9907;}
	.st2{fill:none;stroke:#FFFFFF;stroke-width:0.75;stroke-linejoin:bevel;stroke-dasharray:2.0022,0.9979;}
	.st3{fill:none;}
	.st4{fill:#FFFFFF;}
	.st5{font-family:'Code-Bold';}
	.st6{font-size:102px;}
</style>
<g>
	<g>
		<polyline class="st0" points="243.8,607.7 243.8,608.7 242.8,608.7 		"/>
		<line class="st1" x1="241.8" y1="608.7" x2="105.3" y2="608.7"/>
		<polyline class="st0" points="104.8,608.7 103.8,608.7 103.8,607.7 		"/>
		<line class="st2" x1="103.8" y1="606.7" x2="103.8" y2="400.2"/>
		<polyline class="st0" points="103.8,399.7 103.8,398.7 104.8,398.7 		"/>
		<line class="st1" x1="105.8" y1="398.7" x2="242.3" y2="398.7"/>
		<polyline class="st0" points="242.8,398.7 243.8,398.7 243.8,399.7 		"/>
		<line class="st2" x1="243.8" y1="400.7" x2="243.8" y2="607.2"/>
	</g>
</g>
<rect x="159.1" y="450.7" class="st3" width="29.4" height="94.4"/>
<text transform="matrix(1 0 0 1 160.0405 537.417)" class="st4 st5 st6">1</text>
<g>
	<g>
		<g>
			<polyline class="st0" points="445,607.7 445,608.7 444,608.7 			"/>
			<line class="st1" x1="443" y1="608.7" x2="306.5" y2="608.7"/>
			<polyline class="st0" points="306,608.7 305,608.7 305,607.7 			"/>
			<line class="st2" x1="305" y1="606.7" x2="305" y2="400.2"/>
			<polyline class="st0" points="305,399.7 305,398.7 306,398.7 			"/>
			<line class="st1" x1="307" y1="398.7" x2="443.5" y2="398.7"/>
			<polyline class="st0" points="444,398.7 445,398.7 445,399.7 			"/>
			<line class="st2" x1="445" y1="400.7" x2="445" y2="607.2"/>
		</g>
	</g>
	<rect x="344.5" y="450" class="st3" width="61" height="94.4"/>
	<text transform="matrix(1 0 0 1 348.531 536.6945)" class="st4 st5 st6">3</text>
</g>
<g>
	<g>
		<polyline class="st0" points="445,850 445,851 444,851 		"/>
		<line class="st1" x1="443" y1="851" x2="306.5" y2="851"/>
		<polyline class="st0" points="306,851 305,851 305,850 		"/>
		<line class="st2" x1="305" y1="849" x2="305" y2="642.5"/>
		<polyline class="st0" points="305,642 305,641 306,641 		"/>
		<line class="st1" x1="307" y1="641" x2="443.5" y2="641"/>
		<polyline class="st0" points="444,641 445,641 445,642 		"/>
		<line class="st2" x1="445" y1="643" x2="445" y2="849.5"/>
	</g>
</g>
<rect x="343.6" y="691.1" class="st3" width="55.3" height="96.7"/>
<text transform="matrix(1 0 0 1 344.2173 777.8199)" class="st4 st5 st6">4</text>
<g>
	<g>
		<polyline class="st0" points="646.2,849.2 646.2,850.2 645.2,850.2 		"/>
		<line class="st1" x1="644.2" y1="850.2" x2="507.7" y2="850.2"/>
		<polyline class="st0" points="507.2,850.2 506.2,850.2 506.2,849.2 		"/>
		<line class="st2" x1="506.2" y1="848.2" x2="506.2" y2="641.7"/>
		<polyline class="st0" points="506.2,641.2 506.2,640.2 507.2,640.2 		"/>
		<line class="st1" x1="508.2" y1="640.2" x2="644.7" y2="640.2"/>
		<polyline class="st0" points="645.2,640.2 646.2,640.2 646.2,641.2 		"/>
		<line class="st2" x1="646.2" y1="642.2" x2="646.2" y2="848.7"/>
	</g>
</g>
<rect x="546.8" y="690.3" class="st3" width="58.8" height="96.7"/>
<text transform="matrix(1 0 0 1 548.5994 777.0387)" class="st4 st5 st6">6</text>
<g>
	<g>
		<polyline class="st0" points="646.2,608.5 646.2,609.5 645.2,609.5 		"/>
		<line class="st1" x1="644.2" y1="609.5" x2="507.7" y2="609.5"/>
		<polyline class="st0" points="507.2,609.5 506.2,609.5 506.2,608.5 		"/>
		<line class="st2" x1="506.2" y1="607.5" x2="506.2" y2="401"/>
		<polyline class="st0" points="506.2,400.5 506.2,399.5 507.2,399.5 		"/>
		<line class="st1" x1="508.2" y1="399.5" x2="644.7" y2="399.5"/>
		<polyline class="st0" points="645.2,399.5 646.2,399.5 646.2,400.5 		"/>
		<line class="st2" x1="646.2" y1="401.5" x2="646.2" y2="608"/>
	</g>
</g>
<rect x="551.6" y="449.6" class="st3" width="55" height="96.7"/>
<text transform="matrix(1 0 0 1 551.8677 536.345)" class="st4 st5 st6">5</text>
<g>
	<g>
		<polyline class="st0" points="243.8,849.2 243.8,850.2 242.8,850.2 		"/>
		<line class="st1" x1="241.8" y1="850.2" x2="105.3" y2="850.2"/>
		<polyline class="st0" points="104.8,850.2 103.8,850.2 103.8,849.2 		"/>
		<line class="st2" x1="103.8" y1="848.2" x2="103.8" y2="641.7"/>
		<polyline class="st0" points="103.8,641.2 103.8,640.2 104.8,640.2 		"/>
		<line class="st1" x1="105.7" y1="640.2" x2="242.3" y2="640.2"/>
		<polyline class="st0" points="242.8,640.2 243.8,640.2 243.8,641.2 		"/>
		<line class="st2" x1="243.8" y1="642.2" x2="243.8" y2="848.7"/>
	</g>
</g>
<rect x="143.2" y="691.5" class="st3" width="61" height="94.4"/>
<text transform="matrix(1 0 0 1 146.679 778.1694)" class="st4 st5 st6">2</text>
</svg>
