<?xml version="1.0" encoding="utf-8"?>
<!-- Generator: Adobe Illustrator 21.0.0, SVG Export Plug-In . SVG Version: 6.00 Build 0)  -->
<svg version="1.1" id="图层_1" xmlns="http://www.w3.org/2000/svg" xmlns:xlink="http://www.w3.org/1999/xlink" x="0px" y="0px"
	 viewBox="0 0 750 1334" style="enable-background:new 0 0 750 1334;" xml:space="preserve">
<style type="text/css">
	.st0{fill:none;stroke:#FFFFFF;stroke-width:0.75;stroke-linejoin:bevel;}
	.st1{fill:none;stroke:#FFFFFF;stroke-width:0.75;stroke-linejoin:bevel;stroke-dasharray:2.0051,0.9993;}
	.st2{fill:none;stroke:#FFFFFF;stroke-width:0.75;stroke-linejoin:bevel;stroke-dasharray:2.005,0.9993;}
	.st3{fill:none;}
	.st4{fill:#FFFFFF;}
	.st5{font-family:'Code-Bold';}
	.st6{font-size:65.6636px;}
	.st7{fill:none;stroke:#FFFFFF;stroke-width:0.75;stroke-linejoin:bevel;stroke-dasharray:1.9878,0.9907;}
	.st8{fill:none;stroke:#FFFFFF;stroke-width:0.75;stroke-linejoin:bevel;stroke-dasharray:2.0022,0.9979;}
	.st9{font-size:66.0305px;}
</style>
<g>
	<g>
		<g>
			<polyline class="st0" points="419.6,812.2 419.6,813.2 418.6,813.2 			"/>
			<line class="st1" x1="417.6" y1="813.2" x2="330.9" y2="813.2"/>
			<polyline class="st0" points="330.4,813.2 329.4,813.2 329.4,812.2 			"/>
			<line class="st2" x1="329.4" y1="811.2" x2="329.4" y2="679.5"/>
			<polyline class="st0" points="329.4,679 329.4,678 330.4,678 			"/>
			<line class="st1" x1="331.4" y1="678" x2="418.1" y2="678"/>
			<polyline class="st0" points="418.6,678 419.6,678 419.6,679 			"/>
			<line class="st2" x1="419.6" y1="680" x2="419.6" y2="811.7"/>
		</g>
	</g>
	<rect x="358.6" y="710.3" class="st3" width="35.4" height="62.2"/>
	<text transform="matrix(1 0 0 1 359.6928 766.0349)" class="st4 st5 st6">7</text>
</g>
<g>
	<g>
		<g>
			<polyline class="st0" points="420,517.2 420,518.2 419,518.2 			"/>
			<line class="st1" x1="418" y1="518.2" x2="331.5" y2="518.2"/>
			<polyline class="st0" points="331,518.2 330,518.2 330,517.2 			"/>
			<line class="st2" x1="330" y1="516.2" x2="330" y2="384.5"/>
			<polyline class="st0" points="330,384 330,383 331,383 			"/>
			<line class="st1" x1="332" y1="383" x2="418.5" y2="383"/>
			<polyline class="st0" points="419,383 420,383 420,384 			"/>
			<line class="st2" x1="420" y1="385" x2="420" y2="516.7"/>
		</g>
	</g>
	<rect x="359.1" y="415.3" class="st3" width="35.4" height="62.2"/>
	<text transform="matrix(1 0 0 1 359.3755 471.0362)" class="st4 st5 st6">8</text>
</g>
<g>
	<g>
		<g>
			<polyline class="st0" points="300.8,364 300.8,364.6 300.2,364.6 			"/>
			<line class="st7" x1="299.5" y1="364.6" x2="211.2" y2="364.6"/>
			<polyline class="st0" points="210.9,364.6 210.2,364.6 210.2,364 			"/>
			<line class="st8" x1="210.2" y1="363.3" x2="210.2" y2="229.6"/>
			<polyline class="st0" points="210.2,229.3 210.2,228.7 210.9,228.7 			"/>
			<line class="st7" x1="211.5" y1="228.7" x2="299.9" y2="228.7"/>
			<polyline class="st0" points="300.2,228.7 300.8,228.7 300.8,229.3 			"/>
			<line class="st8" x1="300.8" y1="229.9" x2="300.8" y2="363.6"/>
		</g>
	</g>
	<rect x="246" y="262.3" class="st3" width="19" height="61.1"/>
	<text transform="matrix(1 0 0 1 246.6543 318.4858)" class="st4 st5 st9">1</text>
</g>
<g>
	<g>
		<g>
			<polyline class="st0" points="300.9,663.9 300.9,664.5 300.3,664.5 			"/>
			<line class="st7" x1="299.6" y1="664.5" x2="211.3" y2="664.5"/>
			<polyline class="st0" points="211,664.5 210.3,664.5 210.3,663.9 			"/>
			<line class="st8" x1="210.3" y1="663.3" x2="210.3" y2="529.6"/>
			<polyline class="st0" points="210.3,529.3 210.3,528.6 211,528.6 			"/>
			<line class="st7" x1="211.6" y1="528.6" x2="300" y2="528.6"/>
			<polyline class="st0" points="300.3,528.6 300.9,528.6 300.9,529.3 			"/>
			<line class="st8" x1="300.9" y1="529.9" x2="300.9" y2="663.6"/>
		</g>
	</g>
	<rect x="235.3" y="561" class="st3" width="35.8" height="62.6"/>
	<text transform="matrix(1 0 0 1 235.7288 617.1425)" class="st4 st5 st9">4</text>
</g>
<g>
	<g>
		<g>
			<polyline class="st0" points="540.5,663.2 540.5,663.8 539.8,663.8 			"/>
			<line class="st7" x1="539.2" y1="663.8" x2="450.8" y2="663.8"/>
			<polyline class="st0" points="450.5,663.8 449.8,663.8 449.8,663.2 			"/>
			<line class="st8" x1="449.8" y1="662.5" x2="449.8" y2="528.9"/>
			<polyline class="st0" points="449.8,528.5 449.8,527.9 450.5,527.9 			"/>
			<line class="st7" x1="451.1" y1="527.9" x2="539.5" y2="527.9"/>
			<polyline class="st0" points="539.8,527.9 540.5,527.9 540.5,528.5 			"/>
			<line class="st8" x1="540.5" y1="529.2" x2="540.5" y2="662.9"/>
		</g>
	</g>
	<rect x="476.1" y="560.3" class="st3" width="38.1" height="62.6"/>
	<text transform="matrix(1 0 0 1 477.3118 616.4419)" class="st4 st5 st9">6</text>
</g>
<g>
	<g>
		<g>
			<polyline class="st0" points="661.9,511.3 661.9,512 661.3,512 			"/>
			<line class="st7" x1="660.6" y1="512" x2="572.3" y2="512"/>
			<polyline class="st0" points="571.9,512 571.3,512 571.3,511.3 			"/>
			<line class="st8" x1="571.3" y1="510.7" x2="571.3" y2="377"/>
			<polyline class="st0" points="571.3,376.7 571.3,376 571.9,376 			"/>
			<line class="st7" x1="572.6" y1="376" x2="660.9" y2="376"/>
			<polyline class="st0" points="661.3,376 661.9,376 661.9,376.7 			"/>
			<line class="st8" x1="661.9" y1="377.3" x2="661.9" y2="511"/>
		</g>
	</g>
	<rect x="600.7" y="408.5" class="st3" width="35.6" height="62.6"/>
	<text transform="matrix(1 0 0 1 600.8362 464.6038)" class="st4 st5 st9">5</text>
</g>
<g>
	<g>
		<g>
			<polyline class="st0" points="540.3,368.4 540.3,369.1 539.6,369.1 			"/>
			<line class="st7" x1="539" y1="369.1" x2="450.6" y2="369.1"/>
			<polyline class="st0" points="450.3,369.1 449.6,369.1 449.6,368.4 			"/>
			<line class="st8" x1="449.6" y1="367.8" x2="449.6" y2="234.1"/>
			<polyline class="st0" points="449.6,233.8 449.6,233.1 450.3,233.1 			"/>
			<line class="st7" x1="450.9" y1="233.1" x2="539.3" y2="233.1"/>
			<polyline class="st0" points="539.6,233.1 540.3,233.1 540.3,233.8 			"/>
			<line class="st8" x1="540.3" y1="234.4" x2="540.3" y2="368.1"/>
		</g>
	</g>
	<rect x="475.1" y="266.3" class="st3" width="39.5" height="61.1"/>
	<text transform="matrix(1 0 0 1 477.3592 322.4316)" class="st4 st5 st9">2</text>
</g>
<g>
	<g>
		<g>
			<polyline class="st0" points="178.7,518 178.7,518.7 178,518.7 			"/>
			<line class="st7" x1="177.4" y1="518.7" x2="89" y2="518.7"/>
			<polyline class="st0" points="88.7,518.7 88.1,518.7 88.1,518 			"/>
			<line class="st8" x1="88.1" y1="517.4" x2="88.1" y2="383.7"/>
			<polyline class="st0" points="88.1,383.4 88.1,382.7 88.7,382.7 			"/>
			<line class="st7" x1="89.3" y1="382.7" x2="177.7" y2="382.7"/>
			<polyline class="st0" points="178,382.7 178.7,382.7 178.7,383.4 			"/>
			<line class="st8" x1="178.7" y1="384" x2="178.7" y2="517.7"/>
		</g>
	</g>
	<rect x="113.6" y="415.9" class="st3" width="39.5" height="61.1"/>
	<text transform="matrix(1 0 0 1 116.2498 472.0676)" class="st4 st5 st9">3</text>
</g>
</svg>
