<?xml version="1.0" encoding="utf-8"?>
<!-- Generator: Adobe Illustrator 21.0.0, SVG Export Plug-In . SVG Version: 6.00 Build 0)  -->
<svg version="1.1" id="图层_1" xmlns="http://www.w3.org/2000/svg" xmlns:xlink="http://www.w3.org/1999/xlink" x="0px" y="0px"
	 viewBox="0 0 750 1334" style="enable-background:new 0 0 750 1334;" xml:space="preserve">
<style type="text/css">
	.st0{fill:none;stroke:#FFFFFF;stroke-width:0.75;stroke-linejoin:bevel;}
	.st1{fill:none;stroke:#FFFFFF;stroke-width:0.75;stroke-linejoin:bevel;stroke-dasharray:1.9878,0.9907;}
	.st2{fill:none;stroke:#FFFFFF;stroke-width:0.75;stroke-linejoin:bevel;stroke-dasharray:2.0022,0.9979;}
	.st3{fill:none;}
	.st4{fill:#FFFFFF;}
	.st5{font-family:'Code-Bold';}
	.st6{font-size:66.0305px;}
</style>
<g>
	<g>
		<g>
			<polyline class="st0" points="197.6,631.6 197.6,632.2 197,632.2 			"/>
			<line class="st1" x1="196.3" y1="632.2" x2="108" y2="632.2"/>
			<polyline class="st0" points="107.7,632.2 107,632.2 107,631.6 			"/>
			<line class="st2" x1="107" y1="630.9" x2="107" y2="497.2"/>
			<polyline class="st0" points="107,496.9 107,496.3 107.7,496.3 			"/>
			<line class="st1" x1="108.3" y1="496.3" x2="196.7" y2="496.3"/>
			<polyline class="st0" points="197,496.3 197.6,496.3 197.6,496.9 			"/>
			<line class="st2" x1="197.6" y1="497.5" x2="197.6" y2="631.2"/>
		</g>
	</g>
	<rect x="142.8" y="529.9" class="st3" width="19" height="61.1"/>
	<text transform="matrix(1 0 0 1 143.4017 586.053)" class="st4 st5 st6">1</text>
</g>
<g>
	<g>
		<g>
			<polyline class="st0" points="408.1,627.8 408.1,628.4 407.5,628.4 			"/>
			<line class="st1" x1="406.8" y1="628.4" x2="318.5" y2="628.4"/>
			<polyline class="st0" points="318.2,628.4 317.5,628.4 317.5,627.8 			"/>
			<line class="st2" x1="317.5" y1="627.2" x2="317.5" y2="493.5"/>
			<polyline class="st0" points="317.5,493.2 317.5,492.5 318.2,492.5 			"/>
			<line class="st1" x1="318.8" y1="492.5" x2="407.2" y2="492.5"/>
			<polyline class="st0" points="407.5,492.5 408.1,492.5 408.1,493.2 			"/>
			<line class="st2" x1="408.1" y1="493.8" x2="408.1" y2="627.5"/>
		</g>
	</g>
	<rect x="342.5" y="524.9" class="st3" width="35.8" height="62.6"/>
	<text transform="matrix(1 0 0 1 342.8763 581.0747)" class="st4 st5 st6">4</text>
</g>
<g>
	<g>
		<g>
			<polyline class="st0" points="408.4,834.5 408.4,835.2 407.8,835.2 			"/>
			<line class="st1" x1="407.1" y1="835.2" x2="318.8" y2="835.2"/>
			<polyline class="st0" points="318.4,835.2 317.8,835.2 317.8,834.5 			"/>
			<line class="st2" x1="317.8" y1="833.9" x2="317.8" y2="700.2"/>
			<polyline class="st0" points="317.8,699.9 317.8,699.2 318.4,699.2 			"/>
			<line class="st1" x1="319.1" y1="699.2" x2="407.4" y2="699.2"/>
			<polyline class="st0" points="407.8,699.2 408.4,699.2 408.4,699.9 			"/>
			<line class="st2" x1="408.4" y1="700.5" x2="408.4" y2="834.2"/>
		</g>
	</g>
	<rect x="347.2" y="731.7" class="st3" width="35.6" height="62.6"/>
	<text transform="matrix(1 0 0 1 347.3322 787.8767)" class="st4 st5 st6">5</text>
</g>
<g>
	<g>
		<g>
			<polyline class="st0" points="620.6,624.8 620.6,625.5 619.9,625.5 			"/>
			<line class="st1" x1="619.3" y1="625.5" x2="530.9" y2="625.5"/>
			<polyline class="st0" points="530.6,625.5 529.9,625.5 529.9,624.8 			"/>
			<line class="st2" x1="529.9" y1="624.2" x2="529.9" y2="490.5"/>
			<polyline class="st0" points="529.9,490.2 529.9,489.5 530.6,489.5 			"/>
			<line class="st1" x1="531.2" y1="489.5" x2="619.6" y2="489.5"/>
			<polyline class="st0" points="619.9,489.5 620.6,489.5 620.6,490.2 			"/>
			<line class="st2" x1="620.6" y1="490.8" x2="620.6" y2="624.5"/>
		</g>
	</g>
	<rect x="555.4" y="522.7" class="st3" width="39.5" height="61.1"/>
	<text transform="matrix(1 0 0 1 557.6604 578.8488)" class="st4 st5 st6">2</text>
</g>
<g>
	<g>
		<g>
			<polyline class="st0" points="408.3,428.6 408.3,429.3 407.6,429.3 			"/>
			<line class="st1" x1="407" y1="429.3" x2="318.6" y2="429.3"/>
			<polyline class="st0" points="318.3,429.3 317.7,429.3 317.7,428.6 			"/>
			<line class="st2" x1="317.7" y1="428" x2="317.7" y2="294.3"/>
			<polyline class="st0" points="317.7,294 317.7,293.3 318.3,293.3 			"/>
			<line class="st1" x1="318.9" y1="293.3" x2="407.3" y2="293.3"/>
			<polyline class="st0" points="407.6,293.3 408.3,293.3 408.3,294 			"/>
			<line class="st2" x1="408.3" y1="294.6" x2="408.3" y2="428.3"/>
		</g>
	</g>
	<rect x="343.2" y="326.5" class="st3" width="39.5" height="61.1"/>
	<text transform="matrix(1 0 0 1 345.8145 382.6082)" class="st4 st5 st6">3</text>
</g>
</svg>
