<?xml version="1.0" encoding="utf-8"?>
<!-- Generator: Adobe Illustrator 21.0.0, SVG Export Plug-In . SVG Version: 6.00 Build 0)  -->
<svg version="1.1" id="图层_1" xmlns="http://www.w3.org/2000/svg" xmlns:xlink="http://www.w3.org/1999/xlink" x="0px" y="0px"
	 viewBox="0 0 750 1334" style="enable-background:new 0 0 750 1334;" xml:space="preserve">
<style type="text/css">
	.st0{fill:none;stroke:#FFFFFF;stroke-width:0.75;stroke-linejoin:bevel;}
	.st1{fill:none;stroke:#FFFFFF;stroke-width:0.75;stroke-linejoin:bevel;stroke-dasharray:2.0051,0.9993;}
	.st2{fill:none;stroke:#FFFFFF;stroke-width:0.75;stroke-linejoin:bevel;stroke-dasharray:2.005,0.9993;}
	.st3{fill:none;}
	.st4{fill:#FFFFFF;}
	.st5{font-family:'Code-Bold';}
	.st6{font-size:65.6636px;}
	.st7{fill:none;stroke:#FFFFFF;stroke-width:0.75;stroke-linejoin:bevel;stroke-dasharray:1.9878,0.9907;}
	.st8{fill:none;stroke:#FFFFFF;stroke-width:0.75;stroke-linejoin:bevel;stroke-dasharray:2.0022,0.9979;}
	.st9{font-size:66.0305px;}
</style>
<g>
	<g>
		<g>
			<polyline class="st0" points="321.7,720.7 321.7,721.7 320.7,721.7 			"/>
			<line class="st1" x1="319.7" y1="721.7" x2="233.1" y2="721.7"/>
			<polyline class="st0" points="232.6,721.7 231.6,721.7 231.6,720.7 			"/>
			<line class="st2" x1="231.6" y1="719.7" x2="231.6" y2="588"/>
			<polyline class="st0" points="231.6,587.5 231.6,586.5 232.6,586.5 			"/>
			<line class="st1" x1="233.6" y1="586.5" x2="320.2" y2="586.5"/>
			<polyline class="st0" points="320.7,586.5 321.7,586.5 321.7,587.5 			"/>
			<line class="st2" x1="321.7" y1="588.5" x2="321.7" y2="720.2"/>
		</g>
	</g>
	<rect x="260.8" y="618.8" class="st3" width="35.4" height="62.2"/>
	<text transform="matrix(1 0 0 1 261.8813 674.595)" class="st4 st5 st6">7</text>
</g>
<g>
	<g>
		<polyline class="st0" points="500.1,720.7 500.1,721.7 499.1,721.7 		"/>
		<line class="st1" x1="498.1" y1="721.7" x2="411.5" y2="721.7"/>
		<polyline class="st0" points="411,721.7 410,721.7 410,720.7 		"/>
		<line class="st2" x1="410" y1="719.7" x2="410" y2="588"/>
		<polyline class="st0" points="410,587.5 410,586.5 411,586.5 		"/>
		<line class="st1" x1="412" y1="586.5" x2="498.6" y2="586.5"/>
		<polyline class="st0" points="499.1,586.5 500.1,586.5 500.1,587.5 		"/>
		<line class="st2" x1="500.1" y1="588.5" x2="500.1" y2="720.2"/>
	</g>
</g>
<rect x="439.2" y="618.8" class="st3" width="35.4" height="62.2"/>
<text transform="matrix(1 0 0 1 439.4141 674.5957)" class="st4 st5 st6">8</text>
<g>
	<g>
		<polyline class="st0" points="238.8,398.1 238.8,398.7 238.2,398.7 		"/>
		<line class="st7" x1="237.5" y1="398.7" x2="149.2" y2="398.7"/>
		<polyline class="st0" points="148.8,398.7 148.2,398.7 148.2,398.1 		"/>
		<line class="st8" x1="148.2" y1="397.4" x2="148.2" y2="263.8"/>
		<polyline class="st0" points="148.2,263.4 148.2,262.8 148.8,262.8 		"/>
		<line class="st7" x1="149.5" y1="262.8" x2="237.9" y2="262.8"/>
		<polyline class="st0" points="238.2,262.8 238.8,262.8 238.8,263.4 		"/>
		<line class="st8" x1="238.8" y1="264.1" x2="238.8" y2="397.8"/>
	</g>
</g>
<rect x="184" y="296.4" class="st3" width="19" height="61.1"/>
<text transform="matrix(1 0 0 1 184.6097 352.5803)" class="st4 st5 st9">1</text>
<g>
	<g>
		<polyline class="st0" points="240.1,561.2 240.1,561.9 239.5,561.9 		"/>
		<line class="st7" x1="238.8" y1="561.9" x2="150.5" y2="561.9"/>
		<polyline class="st0" points="150.1,561.9 149.5,561.9 149.5,561.2 		"/>
		<line class="st8" x1="149.5" y1="560.6" x2="149.5" y2="426.9"/>
		<polyline class="st0" points="149.5,426.6 149.5,425.9 150.1,425.9 		"/>
		<line class="st7" x1="150.8" y1="425.9" x2="239.2" y2="425.9"/>
		<polyline class="st0" points="239.5,425.9 240.1,425.9 240.1,426.6 		"/>
		<line class="st8" x1="240.1" y1="427.2" x2="240.1" y2="560.9"/>
	</g>
</g>
<rect x="174.5" y="458.4" class="st3" width="35.8" height="62.6"/>
<text transform="matrix(1 0 0 1 174.8845 514.502)" class="st4 st5 st9">4</text>
<g>
	<g>
		<polyline class="st0" points="586.2,559.4 586.2,560.1 585.6,560.1 		"/>
		<line class="st7" x1="585" y1="560.1" x2="496.6" y2="560.1"/>
		<polyline class="st0" points="496.3,560.1 495.6,560.1 495.6,559.4 		"/>
		<line class="st8" x1="495.6" y1="558.8" x2="495.6" y2="425.1"/>
		<polyline class="st0" points="495.6,424.8 495.6,424.1 496.3,424.1 		"/>
		<line class="st7" x1="496.9" y1="424.1" x2="585.3" y2="424.1"/>
		<polyline class="st0" points="585.6,424.1 586.2,424.1 586.2,424.8 		"/>
		<line class="st8" x1="586.2" y1="425.4" x2="586.2" y2="559.1"/>
	</g>
</g>
<rect x="521.9" y="456.6" class="st3" width="38.1" height="62.6"/>
<text transform="matrix(1 0 0 1 523.0665 512.7014)" class="st4 st5 st9">6</text>
<g>
	<g>
		<polyline class="st0" points="411.4,560.3 411.4,560.9 410.8,560.9 		"/>
		<line class="st7" x1="410.1" y1="560.9" x2="321.7" y2="560.9"/>
		<polyline class="st0" points="321.4,560.9 320.8,560.9 320.8,560.3 		"/>
		<line class="st8" x1="320.8" y1="559.6" x2="320.8" y2="425.9"/>
		<polyline class="st0" points="320.8,425.6 320.8,425 321.4,425 		"/>
		<line class="st7" x1="322.1" y1="425" x2="410.4" y2="425"/>
		<polyline class="st0" points="410.8,425 411.4,425 411.4,425.6 		"/>
		<line class="st8" x1="411.4" y1="426.3" x2="411.4" y2="559.9"/>
	</g>
</g>
<rect x="350.2" y="457.4" class="st3" width="35.6" height="62.6"/>
<text transform="matrix(1 0 0 1 350.3406 513.5627)" class="st4 st5 st9">5</text>
<g>
	<g>
		<polyline class="st0" points="412.5,398.8 412.5,399.4 411.9,399.4 		"/>
		<line class="st7" x1="411.2" y1="399.4" x2="322.9" y2="399.4"/>
		<polyline class="st0" points="322.6,399.4 321.9,399.4 321.9,398.8 		"/>
		<line class="st8" x1="321.9" y1="398.1" x2="321.9" y2="264.4"/>
		<polyline class="st0" points="321.9,264.1 321.9,263.5 322.6,263.5 		"/>
		<line class="st7" x1="323.1" y1="263.5" x2="411.6" y2="263.5"/>
		<polyline class="st0" points="411.9,263.5 412.5,263.5 412.5,264.1 		"/>
		<line class="st8" x1="412.5" y1="264.8" x2="412.5" y2="398.4"/>
	</g>
</g>
<rect x="347.4" y="296.7" class="st3" width="39.5" height="61.1"/>
<text transform="matrix(1 0 0 1 349.6686 352.7761)" class="st4 st5 st9">2</text>
<g>
	<g>
		<g>
			<polyline class="st0" points="586.6,397 586.6,397.7 585.9,397.7 			"/>
			<line class="st7" x1="585.3" y1="397.7" x2="496.9" y2="397.7"/>
			<polyline class="st0" points="496.6,397.7 495.9,397.7 495.9,397 			"/>
			<line class="st8" x1="495.9" y1="396.4" x2="495.9" y2="262.7"/>
			<polyline class="st0" points="495.9,262.4 495.9,261.7 496.6,261.7 			"/>
			<line class="st7" x1="497.2" y1="261.7" x2="585.6" y2="261.7"/>
			<polyline class="st0" points="585.9,261.7 586.6,261.7 586.6,262.4 			"/>
			<line class="st8" x1="586.6" y1="263" x2="586.6" y2="396.7"/>
		</g>
	</g>
	<rect x="521.5" y="295" class="st3" width="39.5" height="61.1"/>
	<text transform="matrix(1 0 0 1 524.123 351.0768)" class="st4 st5 st9">3</text>
</g>
</svg>
