<?xml version="1.0" encoding="utf-8"?>
<!-- Generator: Adobe Illustrator 21.0.0, SVG Export Plug-In . SVG Version: 6.00 Build 0)  -->
<svg version="1.1" id="图层_1" xmlns="http://www.w3.org/2000/svg" xmlns:xlink="http://www.w3.org/1999/xlink" x="0px" y="0px"
	 viewBox="0 0 750 1334" style="enable-background:new 0 0 750 1334;" xml:space="preserve">
<style type="text/css">
	.st0{fill:none;stroke:#FFFFFF;stroke-width:0.75;stroke-linejoin:bevel;}
	.st1{fill:none;stroke:#FFFFFF;stroke-width:0.75;stroke-linejoin:bevel;stroke-dasharray:2.0051,0.9993;}
	.st2{fill:none;stroke:#FFFFFF;stroke-width:0.75;stroke-linejoin:bevel;stroke-dasharray:2.005,0.9993;}
	.st3{fill:none;}
	.st4{fill:#FFFFFF;}
	.st5{font-family:'Code-Bold';}
	.st6{font-size:65.6636px;}
	.st7{fill:none;stroke:#FFFFFF;stroke-width:0.75;stroke-linejoin:bevel;stroke-dasharray:1.9878,0.9907;}
	.st8{fill:none;stroke:#FFFFFF;stroke-width:0.75;stroke-linejoin:bevel;stroke-dasharray:2.0022,0.9979;}
	.st9{font-size:66.0305px;}
</style>
<g>
	<g>
		<g>
			<polyline class="st0" points="502.3,444.6 502.3,445.6 501.3,445.6 			"/>
			<line class="st1" x1="500.3" y1="445.6" x2="413.6" y2="445.6"/>
			<polyline class="st0" points="413.1,445.6 412.1,445.6 412.1,444.6 			"/>
			<line class="st2" x1="412.1" y1="443.6" x2="412.1" y2="311.9"/>
			<polyline class="st0" points="412.1,311.4 412.1,310.4 413.1,310.4 			"/>
			<line class="st1" x1="414.1" y1="310.4" x2="500.8" y2="310.4"/>
			<polyline class="st0" points="501.3,310.4 502.3,310.4 502.3,311.4 			"/>
			<line class="st2" x1="502.3" y1="312.4" x2="502.3" y2="444.1"/>
		</g>
	</g>
	<rect x="441.3" y="342.7" class="st3" width="35.4" height="62.2"/>
	<text transform="matrix(1 0 0 1 442.3937 398.4232)" class="st4 st5 st6">7</text>
</g>
<g>
	<g>
		<g>
			<polyline class="st0" points="308.3,711.4 308.3,712.4 307.3,712.4 			"/>
			<line class="st1" x1="306.3" y1="712.4" x2="219.7" y2="712.4"/>
			<polyline class="st0" points="219.2,712.4 218.2,712.4 218.2,711.4 			"/>
			<line class="st2" x1="218.2" y1="710.4" x2="218.2" y2="578.7"/>
			<polyline class="st0" points="218.2,578.2 218.2,577.2 219.2,577.2 			"/>
			<line class="st1" x1="220.2" y1="577.2" x2="306.8" y2="577.2"/>
			<polyline class="st0" points="307.3,577.2 308.3,577.2 308.3,578.2 			"/>
			<line class="st2" x1="308.3" y1="579.2" x2="308.3" y2="710.9"/>
		</g>
	</g>
	<rect x="247.4" y="609.5" class="st3" width="35.4" height="62.2"/>
	<text transform="matrix(1 0 0 1 247.5764 665.2622)" class="st4 st5 st6">8</text>
</g>
<g>
	<g>
		<g>
			<polyline class="st0" points="212.4,311.5 212.4,312.1 211.8,312.1 			"/>
			<line class="st7" x1="211.1" y1="312.1" x2="122.8" y2="312.1"/>
			<polyline class="st0" points="122.5,312.1 121.8,312.1 121.8,311.5 			"/>
			<line class="st8" x1="121.8" y1="310.8" x2="121.8" y2="177.1"/>
			<polyline class="st0" points="121.8,176.8 121.8,176.2 122.5,176.2 			"/>
			<line class="st7" x1="123.1" y1="176.2" x2="211.5" y2="176.2"/>
			<polyline class="st0" points="211.8,176.2 212.4,176.2 212.4,176.8 			"/>
			<line class="st8" x1="212.4" y1="177.4" x2="212.4" y2="311.1"/>
		</g>
	</g>
	<rect x="157.6" y="209.8" class="st3" width="19" height="61.1"/>
	<text transform="matrix(1 0 0 1 158.2223 265.9585)" class="st4 st5 st9">1</text>
</g>
<g>
	<g>
		<g>
			<polyline class="st0" points="503.2,712.7 503.2,713.3 502.6,713.3 			"/>
			<line class="st7" x1="501.9" y1="713.3" x2="413.6" y2="713.3"/>
			<polyline class="st0" points="413.3,713.3 412.6,713.3 412.6,712.7 			"/>
			<line class="st8" x1="412.6" y1="712.1" x2="412.6" y2="578.4"/>
			<polyline class="st0" points="412.6,578.1 412.6,577.4 413.3,577.4 			"/>
			<line class="st7" x1="413.9" y1="577.4" x2="502.3" y2="577.4"/>
			<polyline class="st0" points="502.6,577.4 503.2,577.4 503.2,578.1 			"/>
			<line class="st8" x1="503.2" y1="578.7" x2="503.2" y2="712.4"/>
		</g>
	</g>
	<rect x="437.6" y="609.8" class="st3" width="35.8" height="62.6"/>
	<text transform="matrix(1 0 0 1 437.9467 665.9692)" class="st4 st5 st9">4</text>
</g>
<g>
	<g>
		<g>
			<polyline class="st0" points="599.6,311.3 599.6,311.9 598.9,311.9 			"/>
			<line class="st7" x1="598.3" y1="311.9" x2="509.9" y2="311.9"/>
			<polyline class="st0" points="509.6,311.9 508.9,311.9 508.9,311.3 			"/>
			<line class="st8" x1="508.9" y1="310.6" x2="508.9" y2="177"/>
			<polyline class="st0" points="508.9,176.6 508.9,176 509.6,176 			"/>
			<line class="st7" x1="510.2" y1="176" x2="598.6" y2="176"/>
			<polyline class="st0" points="598.9,176 599.6,176 599.6,176.6 			"/>
			<line class="st8" x1="599.6" y1="177.3" x2="599.6" y2="311"/>
		</g>
	</g>
	<rect x="535.2" y="208.4" class="st3" width="38.1" height="62.6"/>
	<text transform="matrix(1 0 0 1 536.329 264.5797)" class="st4 st5 st9">6</text>
</g>
<g>
	<g>
		<g>
			<polyline class="st0" points="600.6,847.2 600.6,847.9 600,847.9 			"/>
			<line class="st7" x1="599.3" y1="847.9" x2="511" y2="847.9"/>
			<polyline class="st0" points="510.6,847.9 510,847.9 510,847.2 			"/>
			<line class="st8" x1="510" y1="846.6" x2="510" y2="712.9"/>
			<polyline class="st0" points="510,712.6 510,711.9 510.6,711.9 			"/>
			<line class="st7" x1="511.3" y1="711.9" x2="599.6" y2="711.9"/>
			<polyline class="st0" points="600,711.9 600.6,711.9 600.6,712.6 			"/>
			<line class="st8" x1="600.6" y1="713.2" x2="600.6" y2="846.9"/>
		</g>
	</g>
	<rect x="539.4" y="744.4" class="st3" width="35.6" height="62.6"/>
	<text transform="matrix(1 0 0 1 539.5526 800.5299)" class="st4 st5 st9">5</text>
</g>
<g>
	<g>
		<polyline class="st0" points="309.1,445.1 309.1,445.8 308.4,445.8 		"/>
		<line class="st7" x1="307.8" y1="445.8" x2="219.4" y2="445.8"/>
		<polyline class="st0" points="219.1,445.8 218.4,445.8 218.4,445.1 		"/>
		<line class="st8" x1="218.4" y1="444.5" x2="218.4" y2="310.8"/>
		<polyline class="st0" points="218.4,310.5 218.4,309.8 219.1,309.8 		"/>
		<line class="st7" x1="219.7" y1="309.8" x2="308.1" y2="309.8"/>
		<polyline class="st0" points="308.4,309.8 309.1,309.8 309.1,310.5 		"/>
		<line class="st8" x1="309.1" y1="311.1" x2="309.1" y2="444.8"/>
	</g>
</g>
<rect x="243.9" y="343" class="st3" width="39.5" height="61.1"/>
<text transform="matrix(1 0 0 1 246.181 399.1544)" class="st4 st5 st9">2</text>
<g>
	<g>
		<g>
			<polyline class="st0" points="405.7,579.5 405.7,580.2 405,580.2 			"/>
			<line class="st7" x1="404.4" y1="580.2" x2="316" y2="580.2"/>
			<polyline class="st0" points="315.7,580.2 315.1,580.2 315.1,579.5 			"/>
			<line class="st8" x1="315.1" y1="578.9" x2="315.1" y2="445.2"/>
			<polyline class="st0" points="315.1,444.9 315.1,444.2 315.7,444.2 			"/>
			<line class="st7" x1="316.3" y1="444.2" x2="404.7" y2="444.2"/>
			<polyline class="st0" points="405,444.2 405.7,444.2 405.7,444.9 			"/>
			<line class="st8" x1="405.7" y1="445.5" x2="405.7" y2="579.2"/>
		</g>
	</g>
	<rect x="340.6" y="477.4" class="st3" width="39.5" height="61.1"/>
	<text transform="matrix(1 0 0 1 343.2352 533.5438)" class="st4 st5 st9">3</text>
</g>
<g>
	<g>
		<polyline class="st0" points="212,846.1 212,847.1 211,847.1 		"/>
		<line class="st1" x1="210" y1="847.1" x2="123.4" y2="847.1"/>
		<polyline class="st0" points="122.9,847.1 121.9,847.1 121.9,846.1 		"/>
		<line class="st2" x1="121.9" y1="845.1" x2="121.9" y2="713.4"/>
		<polyline class="st0" points="121.9,712.9 121.9,711.9 122.9,711.9 		"/>
		<line class="st1" x1="123.9" y1="711.9" x2="210.5" y2="711.9"/>
		<polyline class="st0" points="211,711.9 212,711.9 212,712.9 		"/>
		<line class="st2" x1="212" y1="713.9" x2="212" y2="845.6"/>
	</g>
</g>
<rect x="151.1" y="744.2" class="st3" width="35.4" height="62.2"/>
<text transform="matrix(1 0 0 1 151.3266 799.9622)" class="st4 st5 st6">9</text>
</svg>
