<?xml version="1.0" encoding="utf-8"?>
<!-- Generator: Adobe Illustrator 21.0.0, SVG Export Plug-In . SVG Version: 6.00 Build 0)  -->
<svg version="1.1" id="图层_1" xmlns="http://www.w3.org/2000/svg" xmlns:xlink="http://www.w3.org/1999/xlink" x="0px" y="0px"
	 viewBox="0 0 750 1334" style="enable-background:new 0 0 750 1334;" xml:space="preserve">
<style type="text/css">
	.st0{fill:none;}
	.st1{fill:#FFFFFF;}
	.st2{font-family:'Code-Bold';}
	.st3{font-size:65.6636px;}
	.st4{fill:none;stroke:#FFFFFF;stroke-width:0.75;stroke-linejoin:bevel;}
	.st5{fill:none;stroke:#FFFFFF;stroke-width:0.75;stroke-linejoin:bevel;stroke-dasharray:2.0051,0.9993;}
	.st6{fill:none;stroke:#FFFFFF;stroke-width:0.75;stroke-linejoin:bevel;stroke-dasharray:2.005,0.9993;}
</style>
<rect x="359.1" y="471.3" class="st0" width="35.4" height="62.2"/>
<text transform="matrix(1 0 0 1 359.3096 527.0721)" class="st1 st2 st3">5</text>
<g>
	<g>
		<g>
			<polyline class="st4" points="582.9,573.2 582.9,574.2 581.9,574.2 			"/>
			<line class="st5" x1="580.9" y1="574.2" x2="494.3" y2="574.2"/>
			<polyline class="st4" points="493.8,574.2 492.8,574.2 492.8,573.2 			"/>
			<line class="st6" x1="492.8" y1="572.2" x2="492.8" y2="440.5"/>
			<polyline class="st4" points="492.8,440 492.8,439 493.8,439 			"/>
			<line class="st5" x1="494.8" y1="439" x2="581.4" y2="439"/>
			<polyline class="st4" points="581.9,439 582.9,439 582.9,440 			"/>
			<line class="st6" x1="582.9" y1="441" x2="582.9" y2="572.7"/>
		</g>
	</g>
	<rect x="518.2" y="472" class="st0" width="39.3" height="60.8"/>
	<text transform="matrix(1 0 0 1 520.8234 527.7998)" class="st1 st2 st3">3</text>
</g>
<g>
	<g>
		<polyline class="st4" points="304.7,671.3 303.7,671.3 303.7,670.3 		"/>
		<line class="st5" x1="303.7" y1="669.3" x2="303.7" y2="582.7"/>
		<polyline class="st4" points="303.7,582.2 303.7,581.2 304.7,581.2 		"/>
		<line class="st6" x1="305.7" y1="581.2" x2="437.4" y2="581.2"/>
		<polyline class="st4" points="437.9,581.2 438.9,581.2 438.9,582.2 		"/>
		<line class="st5" x1="438.9" y1="583.2" x2="438.9" y2="669.8"/>
		<polyline class="st4" points="438.9,670.3 438.9,671.3 437.9,671.3 		"/>
		<line class="st6" x1="436.9" y1="671.3" x2="305.2" y2="671.3"/>
	</g>
</g>
<rect x="343.9" y="607.4" class="st0" width="62.2" height="37.8"/>
<text transform="matrix(-1.346898e-10 1 -1 -1.346898e-10 350.3042 608.4816)" class="st1 st2 st3">6</text>
<g>
	<g>
		<polyline class="st4" points="420.1,573.2 420.1,574.2 419.1,574.2 		"/>
		<line class="st5" x1="418.1" y1="574.2" x2="331.4" y2="574.2"/>
		<polyline class="st4" points="330.9,574.2 329.9,574.2 329.9,573.2 		"/>
		<line class="st6" x1="329.9" y1="572.2" x2="329.9" y2="440.5"/>
		<polyline class="st4" points="329.9,440 329.9,439 330.9,439 		"/>
		<line class="st5" x1="331.9" y1="439" x2="418.6" y2="439"/>
		<polyline class="st4" points="419.1,439 420.1,439 420.1,440 		"/>
		<line class="st6" x1="420.1" y1="441" x2="420.1" y2="572.7"/>
	</g>
</g>
<g>
	<g>
		<g>
			<polyline class="st4" points="257.2,573.2 257.2,574.2 256.2,574.2 			"/>
			<line class="st5" x1="255.2" y1="574.2" x2="168.6" y2="574.2"/>
			<polyline class="st4" points="168.1,574.2 167.1,574.2 167.1,573.2 			"/>
			<line class="st6" x1="167.1" y1="572.2" x2="167.1" y2="440.5"/>
			<polyline class="st4" points="167.1,440 167.1,439 168.1,439 			"/>
			<line class="st5" x1="169.1" y1="439" x2="255.7" y2="439"/>
			<polyline class="st4" points="256.2,439 257.2,439 257.2,440 			"/>
			<line class="st6" x1="257.2" y1="441" x2="257.2" y2="572.7"/>
		</g>
	</g>
	<rect x="192.3" y="472" class="st0" width="39.3" height="60.8"/>
	<text transform="matrix(1 0 0 1 194.485 527.7997)" class="st1 st2 st3">2</text>
</g>
<g>
	<g>
		<g>
			<polyline class="st4" points="304.7,431.9 303.7,431.9 303.7,430.9 			"/>
			<line class="st5" x1="303.7" y1="429.9" x2="303.7" y2="343.3"/>
			<polyline class="st4" points="303.7,342.8 303.7,341.8 304.7,341.8 			"/>
			<line class="st6" x1="305.7" y1="341.8" x2="437.4" y2="341.8"/>
			<polyline class="st4" points="437.9,341.8 438.9,341.8 438.9,342.8 			"/>
			<line class="st5" x1="438.9" y1="343.8" x2="438.9" y2="430.4"/>
			<polyline class="st4" points="438.9,430.9 438.9,431.9 437.9,431.9 			"/>
			<line class="st6" x1="436.9" y1="431.9" x2="305.2" y2="431.9"/>
		</g>
	</g>
	<rect x="344.3" y="366.6" class="st0" width="62.2" height="35.6"/>
	<text transform="matrix(-1.346898e-10 1 -1 -1.346898e-10 350.7729 367.0302)" class="st1 st2 st3">4</text>
</g>
<g>
	<g>
		<g>
			<polyline class="st4" points="304.7,769.5 303.7,769.5 303.7,768.5 			"/>
			<line class="st5" x1="303.7" y1="767.5" x2="303.7" y2="680.9"/>
			<polyline class="st4" points="303.7,680.4 303.7,679.4 304.7,679.4 			"/>
			<line class="st6" x1="305.7" y1="679.4" x2="437.4" y2="679.4"/>
			<polyline class="st4" points="437.9,679.4 438.9,679.4 438.9,680.4 			"/>
			<line class="st5" x1="438.9" y1="681.4" x2="438.9" y2="768"/>
			<polyline class="st4" points="438.9,768.5 438.9,769.5 437.9,769.5 			"/>
			<line class="st6" x1="436.9" y1="769.5" x2="305.2" y2="769.5"/>
		</g>
	</g>
	<rect x="340.9" y="715" class="st0" width="60.8" height="18.9"/>
	<text transform="matrix(-1.346898e-10 1 -1 -1.346898e-10 345.8569 715.631)" class="st1 st2 st3">1</text>
</g>
<g>
	<g>
		<g>
			<polyline class="st4" points="304.7,333.7 303.7,333.7 303.7,332.7 			"/>
			<line class="st5" x1="303.7" y1="331.7" x2="303.7" y2="245.1"/>
			<polyline class="st4" points="303.7,244.6 303.7,243.6 304.7,243.6 			"/>
			<line class="st6" x1="305.7" y1="243.6" x2="437.4" y2="243.6"/>
			<polyline class="st4" points="437.9,243.6 438.9,243.6 438.9,244.6 			"/>
			<line class="st5" x1="438.9" y1="245.6" x2="438.9" y2="332.2"/>
			<polyline class="st4" points="438.9,332.7 438.9,333.7 437.9,333.7 			"/>
			<line class="st6" x1="436.9" y1="333.7" x2="305.2" y2="333.7"/>
		</g>
	</g>
	<rect x="344.3" y="272.8" class="st0" width="62.2" height="35.4"/>
	<text transform="matrix(-1.346898e-10 1 -1 -1.346898e-10 350.7686 273.8597)" class="st1 st2 st3">7</text>
</g>
</svg>
