<?xml version="1.0" encoding="utf-8"?>
<!-- Generator: Adobe Illustrator 21.0.0, SVG Export Plug-In . SVG Version: 6.00 Build 0)  -->
<svg version="1.1" id="图层_1" xmlns="http://www.w3.org/2000/svg" xmlns:xlink="http://www.w3.org/1999/xlink" x="0px" y="0px"
	 viewBox="0 0 750 1334" style="enable-background:new 0 0 750 1334;" xml:space="preserve">
<style type="text/css">
	.st0{fill:none;}
	.st1{fill:#FFFFFF;}
	.st2{font-family:'Code-Bold';}
	.st3{font-size:65.6636px;}
	.st4{fill:none;stroke:#FFFFFF;stroke-width:0.75;stroke-linejoin:bevel;}
	.st5{fill:none;stroke:#FFFFFF;stroke-width:0.75;stroke-linejoin:bevel;stroke-dasharray:2.0051,0.9993;}
	.st6{fill:none;stroke:#FFFFFF;stroke-width:0.75;stroke-linejoin:bevel;stroke-dasharray:2.005,0.9993;}
</style>
<rect x="204.4" y="383.9" class="st0" width="35.4" height="62.2"/>
<text transform="matrix(1 0 0 1 204.5569 439.7055)" class="st1 st2 st3">5</text>
<g>
	<g>
		<g>
			<polyline class="st4" points="367.1,355.3 367.1,356.3 366.1,356.3 			"/>
			<line class="st5" x1="365.1" y1="356.3" x2="278.4" y2="356.3"/>
			<polyline class="st4" points="277.9,356.3 276.9,356.3 276.9,355.3 			"/>
			<line class="st6" x1="276.9" y1="354.3" x2="276.9" y2="222.6"/>
			<polyline class="st4" points="276.9,222.1 276.9,221.1 277.9,221.1 			"/>
			<line class="st5" x1="278.9" y1="221.1" x2="365.6" y2="221.1"/>
			<polyline class="st4" points="366.1,221.1 367.1,221.1 367.1,222.1 			"/>
			<line class="st6" x1="367.1" y1="223.1" x2="367.1" y2="354.8"/>
		</g>
	</g>
	<rect x="302.4" y="254.1" class="st0" width="39.3" height="60.8"/>
	<text transform="matrix(1 0 0 1 304.9543 309.953)" class="st1 st2 st3">3</text>
</g>
<g>
	<g>
		<polyline class="st4" points="472.6,355.3 472.6,356.3 471.6,356.3 		"/>
		<line class="st5" x1="470.6" y1="356.3" x2="384" y2="356.3"/>
		<polyline class="st4" points="383.5,356.3 382.5,356.3 382.5,355.3 		"/>
		<line class="st6" x1="382.5" y1="354.3" x2="382.5" y2="222.6"/>
		<polyline class="st4" points="382.5,222.1 382.5,221.1 383.5,221.1 		"/>
		<line class="st5" x1="384.5" y1="221.1" x2="471.1" y2="221.1"/>
		<polyline class="st4" points="471.6,221.1 472.6,221.1 472.6,222.1 		"/>
		<line class="st6" x1="472.6" y1="223.1" x2="472.6" y2="354.8"/>
	</g>
</g>
<rect x="407.3" y="253.4" class="st0" width="35.6" height="62.2"/>
<text transform="matrix(1 0 0 1 407.7532 309.225)" class="st1 st2 st3">4</text>
<g>
	<g>
		<polyline class="st4" points="574.3,485.8 574.3,486.8 573.3,486.8 		"/>
		<line class="st5" x1="572.3" y1="486.8" x2="485.7" y2="486.8"/>
		<polyline class="st4" points="485.2,486.8 484.2,486.8 484.2,485.8 		"/>
		<line class="st6" x1="484.2" y1="484.8" x2="484.2" y2="353.1"/>
		<polyline class="st4" points="484.2,352.6 484.2,351.6 485.2,351.6 		"/>
		<line class="st5" x1="486.2" y1="351.6" x2="572.8" y2="351.6"/>
		<polyline class="st4" points="573.3,351.6 574.3,351.6 574.3,352.6 		"/>
		<line class="st6" x1="574.3" y1="353.6" x2="574.3" y2="485.3"/>
	</g>
</g>
<rect x="510.4" y="383.9" class="st0" width="37.8" height="62.2"/>
<text transform="matrix(1 0 0 1 511.4885 439.7055)" class="st1 st2 st3">6</text>
<g>
	<g>
		<polyline class="st4" points="265.3,485.8 265.3,486.8 264.3,486.8 		"/>
		<line class="st5" x1="263.3" y1="486.8" x2="176.7" y2="486.8"/>
		<polyline class="st4" points="176.2,486.8 175.2,486.8 175.2,485.8 		"/>
		<line class="st6" x1="175.2" y1="484.8" x2="175.2" y2="353.1"/>
		<polyline class="st4" points="175.2,352.6 175.2,351.6 176.2,351.6 		"/>
		<line class="st5" x1="177.2" y1="351.6" x2="263.8" y2="351.6"/>
		<polyline class="st4" points="264.3,351.6 265.3,351.6 265.3,352.6 		"/>
		<line class="st6" x1="265.3" y1="353.6" x2="265.3" y2="485.3"/>
	</g>
</g>
<g>
	<g>
		<polyline class="st4" points="676.1,355.3 676.1,356.3 675.1,356.3 		"/>
		<line class="st5" x1="674.1" y1="356.3" x2="587.4" y2="356.3"/>
		<polyline class="st4" points="586.9,356.3 585.9,356.3 585.9,355.3 		"/>
		<line class="st6" x1="585.9" y1="354.3" x2="585.9" y2="222.6"/>
		<polyline class="st4" points="585.9,222.1 585.9,221.1 586.9,221.1 		"/>
		<line class="st5" x1="587.9" y1="221.1" x2="674.6" y2="221.1"/>
		<polyline class="st4" points="675.1,221.1 676.1,221.1 676.1,222.1 		"/>
		<line class="st6" x1="676.1" y1="223.1" x2="676.1" y2="354.8"/>
	</g>
</g>
<rect x="611.1" y="254.1" class="st0" width="39.3" height="60.8"/>
<text transform="matrix(1 0 0 1 613.345 309.953)" class="st1 st2 st3">2</text>
<g>
	<g>
		<polyline class="st4" points="419.8,627.4 419.8,628.4 418.8,628.4 		"/>
		<line class="st5" x1="417.8" y1="628.4" x2="331.2" y2="628.4"/>
		<polyline class="st4" points="330.7,628.4 329.7,628.4 329.7,627.4 		"/>
		<line class="st6" x1="329.7" y1="626.4" x2="329.7" y2="494.7"/>
		<polyline class="st4" points="329.7,494.2 329.7,493.2 330.7,493.2 		"/>
		<line class="st5" x1="331.7" y1="493.2" x2="418.3" y2="493.2"/>
		<polyline class="st4" points="418.8,493.2 419.8,493.2 419.8,494.2 		"/>
		<line class="st6" x1="419.8" y1="495.2" x2="419.8" y2="626.9"/>
	</g>
</g>
<rect x="358.9" y="525.5" class="st0" width="35.4" height="62.2"/>
<text transform="matrix(1 0 0 1 359.9612 581.3407)" class="st1 st2 st3">7</text>
<g>
	<g>
		<polyline class="st4" points="419.8,770.4 419.8,771.4 418.8,771.4 		"/>
		<line class="st5" x1="417.8" y1="771.4" x2="331.2" y2="771.4"/>
		<polyline class="st4" points="330.7,771.4 329.7,771.4 329.7,770.4 		"/>
		<line class="st6" x1="329.7" y1="769.4" x2="329.7" y2="637.7"/>
		<polyline class="st4" points="329.7,637.2 329.7,636.2 330.7,636.2 		"/>
		<line class="st5" x1="331.7" y1="636.2" x2="418.3" y2="636.2"/>
		<polyline class="st4" points="418.8,636.2 419.8,636.2 419.8,637.2 		"/>
		<line class="st6" x1="419.8" y1="638.2" x2="419.8" y2="769.9"/>
	</g>
</g>
<rect x="358.9" y="668.5" class="st0" width="35.4" height="62.2"/>
<text transform="matrix(1 0 0 1 359.1077 724.3192)" class="st1 st2 st3">8</text>
<g>
	<g>
		<polyline class="st4" points="164.1,355.3 164.1,356.3 163.1,356.3 		"/>
		<line class="st5" x1="162.1" y1="356.3" x2="75.4" y2="356.3"/>
		<polyline class="st4" points="74.9,356.3 73.9,356.3 73.9,355.3 		"/>
		<line class="st6" x1="73.9" y1="354.3" x2="73.9" y2="222.6"/>
		<polyline class="st4" points="73.9,222.1 73.9,221.1 74.9,221.1 		"/>
		<line class="st5" x1="75.9" y1="221.1" x2="162.6" y2="221.1"/>
		<polyline class="st4" points="163.1,221.1 164.1,221.1 164.1,222.1 		"/>
		<line class="st6" x1="164.1" y1="223.1" x2="164.1" y2="354.8"/>
	</g>
</g>
<rect x="109.5" y="254.6" class="st0" width="18.9" height="60.8"/>
<text transform="matrix(1 0 0 1 110.1721 310.4184)" class="st1 st2 st3">1</text>
</svg>
