<?xml version="1.0" encoding="utf-8"?>
<!-- Generator: Adobe Illustrator 21.0.0, SVG Export Plug-In . SVG Version: 6.00 Build 0)  -->
<svg version="1.1" id="图层_1" xmlns="http://www.w3.org/2000/svg" xmlns:xlink="http://www.w3.org/1999/xlink" x="0px" y="0px"
	 viewBox="0 0 750 1334" style="enable-background:new 0 0 750 1334;" xml:space="preserve">
<style type="text/css">
	.st0{fill:none;stroke:#FFFFFF;stroke-width:0.75;stroke-linejoin:bevel;}
	.st1{fill:none;stroke:#FFFFFF;stroke-width:0.75;stroke-linejoin:bevel;stroke-dasharray:1.9878,0.9907;}
	.st2{fill:none;stroke:#FFFFFF;stroke-width:0.75;stroke-linejoin:bevel;stroke-dasharray:2.0022,0.9979;}
	.st3{fill:none;}
	.st4{fill:#FFFFFF;}
	.st5{font-family:'Code-Bold';}
	.st6{font-size:54.7437px;}
</style>
<g>
	<g>
		<g>
			<polyline class="st0" points="325.6,665.6 325.6,666.1 325.1,666.1 			"/>
			<line class="st1" x1="324.5" y1="666.1" x2="251.3" y2="666.1"/>
			<polyline class="st0" points="251.1,666.1 250.5,666.1 250.5,665.6 			"/>
			<line class="st2" x1="250.5" y1="665.1" x2="250.5" y2="554.2"/>
			<polyline class="st0" points="250.5,554 250.5,553.5 251.1,553.5 			"/>
			<line class="st1" x1="251.6" y1="553.5" x2="324.9" y2="553.5"/>
			<polyline class="st0" points="325.1,553.5 325.6,553.5 325.6,554 			"/>
			<line class="st2" x1="325.6" y1="554.5" x2="325.6" y2="665.3"/>
		</g>
	</g>
	<rect x="280.2" y="581.3" class="st3" width="15.8" height="50.7"/>
	<text transform="matrix(1 0 0 1 280.7007 627.8793)" class="st4 st5 st6">1</text>
</g>
<g>
	<g>
		<g>
			<polyline class="st0" points="486.8,665.7 486.8,666.2 486.3,666.2 			"/>
			<line class="st1" x1="485.7" y1="666.2" x2="412.5" y2="666.2"/>
			<polyline class="st0" points="412.2,666.2 411.6,666.2 411.6,665.7 			"/>
			<line class="st2" x1="411.6" y1="665.2" x2="411.6" y2="554.4"/>
			<polyline class="st0" points="411.6,554.1 411.6,553.6 412.2,553.6 			"/>
			<line class="st1" x1="412.7" y1="553.6" x2="486" y2="553.6"/>
			<polyline class="st0" points="486.3,553.6 486.8,553.6 486.8,554.1 			"/>
			<line class="st2" x1="486.8" y1="554.6" x2="486.8" y2="665.5"/>
		</g>
	</g>
	<rect x="432.4" y="580.4" class="st3" width="29.7" height="51.9"/>
	<text transform="matrix(1 0 0 1 432.6929 626.9847)" class="st4 st5 st6">4</text>
</g>
<g>
	<g>
		<g>
			<polyline class="st0" points="406.1,368.3 406.1,368.9 405.6,368.9 			"/>
			<line class="st1" x1="405" y1="368.9" x2="331.8" y2="368.9"/>
			<polyline class="st0" points="331.4,368.9 330.9,368.9 330.9,368.3 			"/>
			<line class="st2" x1="330.9" y1="367.8" x2="330.9" y2="256.9"/>
			<polyline class="st0" points="330.9,256.7 330.9,256.1 331.4,256.1 			"/>
			<line class="st1" x1="332" y1="256.1" x2="405.2" y2="256.1"/>
			<polyline class="st0" points="405.6,256.1 406.1,256.1 406.1,256.7 			"/>
			<line class="st2" x1="406.1" y1="257.2" x2="406.1" y2="368"/>
		</g>
	</g>
	<rect x="355.3" y="283" class="st3" width="29.5" height="51.9"/>
	<text transform="matrix(1 0 0 1 355.4478 329.5853)" class="st4 st5 st6">5</text>
</g>
<g>
	<g>
		<g>
			<polyline class="st0" points="590.2,517.3 590.2,517.9 589.6,517.9 			"/>
			<line class="st1" x1="589.1" y1="517.9" x2="515.9" y2="517.9"/>
			<polyline class="st0" points="515.6,517.9 515,517.9 515,517.3 			"/>
			<line class="st2" x1="515" y1="516.8" x2="515" y2="405.9"/>
			<polyline class="st0" points="515,405.7 515,405.1 515.6,405.1 			"/>
			<line class="st1" x1="516.1" y1="405.1" x2="589.4" y2="405.1"/>
			<polyline class="st0" points="589.6,405.1 590.2,405.1 590.2,405.7 			"/>
			<line class="st2" x1="590.2" y1="406.2" x2="590.2" y2="517"/>
		</g>
	</g>
	<rect x="536.2" y="432.6" class="st3" width="32.7" height="50.7"/>
	<text transform="matrix(1 0 0 1 538.0601 479.1918)" class="st4 st5 st6">2</text>
</g>
<g>
	<g>
		<g>
			<polyline class="st0" points="219.1,518.2 219.1,518.7 218.5,518.7 			"/>
			<line class="st1" x1="218" y1="518.7" x2="144.7" y2="518.7"/>
			<polyline class="st0" points="144.5,518.7 144,518.7 144,518.2 			"/>
			<line class="st2" x1="144" y1="517.7" x2="144" y2="406.8"/>
			<polyline class="st0" points="144,406.6 144,406 144.5,406 			"/>
			<line class="st1" x1="145" y1="406" x2="218.2" y2="406"/>
			<polyline class="st0" points="218.5,406 219.1,406 219.1,406.6 			"/>
			<line class="st2" x1="219.1" y1="407.1" x2="219.1" y2="517.9"/>
		</g>
	</g>
	<rect x="165.1" y="433.5" class="st3" width="32.7" height="50.7"/>
	<text transform="matrix(1 0 0 1 167.2891 480.0741)" class="st4 st5 st6">3</text>
</g>
</svg>
