<?xml version="1.0" encoding="utf-8"?>
<!-- Generator: Adobe Illustrator 21.0.0, SVG Export Plug-In . SVG Version: 6.00 Build 0)  -->
<svg version="1.1" id="图层_1" xmlns="http://www.w3.org/2000/svg" xmlns:xlink="http://www.w3.org/1999/xlink" x="0px" y="0px"
	 viewBox="0 0 750 1334" style="enable-background:new 0 0 750 1334;" xml:space="preserve">
<style type="text/css">
	.st0{fill:none;stroke:#FFFFFF;stroke-width:0.75;stroke-linejoin:bevel;}
	.st1{fill:none;stroke:#FFFFFF;stroke-width:0.75;stroke-linejoin:bevel;stroke-dasharray:2.0051,0.9993;}
	.st2{fill:none;stroke:#FFFFFF;stroke-width:0.75;stroke-linejoin:bevel;stroke-dasharray:2.005,0.9993;}
	.st3{fill:none;}
	.st4{fill:#FFFFFF;}
	.st5{font-family:'Code-Bold';}
	.st6{font-size:47.8588px;}
	.st7{fill:none;stroke:#FFFFFF;stroke-width:0.75;stroke-linejoin:bevel;stroke-dasharray:1.9878,0.9907;}
	.st8{fill:none;stroke:#FFFFFF;stroke-width:0.75;stroke-linejoin:bevel;stroke-dasharray:2.0022,0.9979;}
	.st9{font-size:48.1262px;}
</style>
<g>
	<g>
		<g>
			<polyline class="st0" points="627.5,493.1 627.5,493.9 626.7,493.9 			"/>
			<line class="st1" x1="626" y1="493.9" x2="562.8" y2="493.9"/>
			<polyline class="st0" points="562.4,493.9 561.7,493.9 561.7,493.1 			"/>
			<line class="st2" x1="561.7" y1="492.4" x2="561.7" y2="396.4"/>
			<polyline class="st0" points="561.7,396.1 561.7,395.3 562.4,395.3 			"/>
			<line class="st1" x1="563.2" y1="395.3" x2="626.4" y2="395.3"/>
			<polyline class="st0" points="626.7,395.3 627.5,395.3 627.5,396.1 			"/>
			<line class="st2" x1="627.5" y1="396.8" x2="627.5" y2="492.8"/>
		</g>
	</g>
	<rect x="583" y="418.9" class="st3" width="25.8" height="45.3"/>
	<text transform="matrix(1 0 0 1 583.7913 459.5171)" class="st4 st5 st6">7</text>
</g>
<g>
	<g>
		<g>
			<polyline class="st0" points="188.6,493.1 188.6,493.5 188.1,493.5 			"/>
			<line class="st7" x1="187.6" y1="493.5" x2="123.3" y2="493.5"/>
			<polyline class="st0" points="123.1,493.5 122.5,493.5 122.5,493.1 			"/>
			<line class="st8" x1="122.5" y1="492.6" x2="122.5" y2="395.1"/>
			<polyline class="st0" points="122.5,394.9 122.5,394.5 123.1,394.5 			"/>
			<line class="st7" x1="123.5" y1="394.5" x2="187.9" y2="394.5"/>
			<polyline class="st0" points="188.1,394.5 188.6,394.5 188.6,394.9 			"/>
			<line class="st8" x1="188.6" y1="395.4" x2="188.6" y2="492.8"/>
		</g>
	</g>
	<rect x="148.6" y="419" class="st3" width="13.8" height="44.5"/>
	<text transform="matrix(1 0 0 1 149.0911 459.9077)" class="st4 st5 st9">1</text>
</g>
<g>
	<g>
		<g>
			<polyline class="st0" points="408.2,493.5 408.2,493.9 407.7,493.9 			"/>
			<line class="st7" x1="407.2" y1="493.9" x2="342.9" y2="493.9"/>
			<polyline class="st0" points="342.6,493.9 342.1,493.9 342.1,493.5 			"/>
			<line class="st8" x1="342.1" y1="493.1" x2="342.1" y2="395.6"/>
			<polyline class="st0" points="342.1,395.4 342.1,394.9 342.6,394.9 			"/>
			<line class="st7" x1="343.1" y1="394.9" x2="407.5" y2="394.9"/>
			<polyline class="st0" points="407.7,394.9 408.2,394.9 408.2,395.4 			"/>
			<line class="st8" x1="408.2" y1="395.8" x2="408.2" y2="493.3"/>
		</g>
	</g>
	<rect x="360.4" y="418.5" class="st3" width="26.1" height="45.6"/>
	<text transform="matrix(1 0 0 1 360.638 459.4497)" class="st4 st5 st9">4</text>
</g>
<g>
	<g>
		<g>
			<polyline class="st0" points="554.1,493.7 554.1,494.1 553.6,494.1 			"/>
			<line class="st7" x1="553.1" y1="494.1" x2="488.7" y2="494.1"/>
			<polyline class="st0" points="488.5,494.1 488,494.1 488,493.7 			"/>
			<line class="st8" x1="488" y1="493.1" x2="488" y2="395.8"/>
			<polyline class="st0" points="488,395.5 488,395 488.5,395 			"/>
			<line class="st7" x1="488.9" y1="395" x2="553.4" y2="395"/>
			<polyline class="st0" points="553.6,395 554.1,395 554.1,395.5 			"/>
			<line class="st8" x1="554.1" y1="396" x2="554.1" y2="493.4"/>
		</g>
	</g>
	<rect x="507.2" y="418.7" class="st3" width="27.8" height="45.6"/>
	<text transform="matrix(1 0 0 1 508.0101 459.5952)" class="st4 st5 st9">6</text>
</g>
<g>
	<g>
		<g>
			<polyline class="st0" points="480.4,493.4 480.4,493.9 479.9,493.9 			"/>
			<line class="st7" x1="479.4" y1="493.9" x2="415.1" y2="493.9"/>
			<polyline class="st0" points="414.8,493.9 414.3,493.9 414.3,493.4 			"/>
			<line class="st8" x1="414.3" y1="493" x2="414.3" y2="395.5"/>
			<polyline class="st0" points="414.3,395.3 414.3,394.8 414.8,394.8 			"/>
			<line class="st7" x1="415.3" y1="394.8" x2="479.6" y2="394.8"/>
			<polyline class="st0" points="479.9,394.8 480.4,394.8 480.4,395.3 			"/>
			<line class="st8" x1="480.4" y1="395.7" x2="480.4" y2="493.2"/>
		</g>
	</g>
	<rect x="435.8" y="418.5" class="st3" width="25.9" height="45.6"/>
	<text transform="matrix(1 0 0 1 435.8665 459.3853)" class="st4 st5 st9">5</text>
</g>
<g>
	<g>
		<g>
			<polyline class="st0" points="262.3,493.1 262.3,493.7 261.8,493.7 			"/>
			<line class="st7" x1="261.4" y1="493.7" x2="196.9" y2="493.7"/>
			<polyline class="st0" points="196.7,493.7 196.2,493.7 196.2,493.1 			"/>
			<line class="st8" x1="196.2" y1="492.7" x2="196.2" y2="395.3"/>
			<polyline class="st0" points="196.2,395 196.2,394.5 196.7,394.5 			"/>
			<line class="st7" x1="197.1" y1="394.5" x2="261.6" y2="394.5"/>
			<polyline class="st0" points="261.8,394.5 262.3,394.5 262.3,395 			"/>
			<line class="st8" x1="262.3" y1="395.5" x2="262.3" y2="492.9"/>
		</g>
	</g>
	<rect x="214.8" y="418.7" class="st3" width="28.8" height="44.5"/>
	<text transform="matrix(1 0 0 1 216.4491 459.6499)" class="st4 st5 st9">2</text>
</g>
<g>
	<g>
		<g>
			<polyline class="st0" points="336,493.4 336,493.9 335.5,493.9 			"/>
			<line class="st7" x1="335" y1="493.9" x2="270.6" y2="493.9"/>
			<polyline class="st0" points="270.4,493.9 269.9,493.9 269.9,493.4 			"/>
			<line class="st8" x1="269.9" y1="492.9" x2="269.9" y2="395.5"/>
			<polyline class="st0" points="269.9,395.3 269.9,394.7 270.4,394.7 			"/>
			<line class="st7" x1="270.8" y1="394.7" x2="335.2" y2="394.7"/>
			<polyline class="st0" points="335.5,394.7 336,394.7 336,395.3 			"/>
			<line class="st8" x1="336" y1="395.7" x2="336" y2="493.1"/>
		</g>
	</g>
	<rect x="288.5" y="418.9" class="st3" width="28.8" height="44.5"/>
	<text transform="matrix(1 0 0 1 290.4364 459.8687)" class="st4 st5 st9">3</text>
</g>
<g>
	<g>
		<g>
			<polyline class="st0" points="407.9,625.2 407.9,625.9 407.1,625.9 			"/>
			<line class="st1" x1="406.4" y1="625.9" x2="343.3" y2="625.9"/>
			<polyline class="st0" points="342.9,625.9 342.2,625.9 342.2,625.2 			"/>
			<line class="st2" x1="342.2" y1="624.5" x2="342.2" y2="528.5"/>
			<polyline class="st0" points="342.2,528.1 342.2,527.4 342.9,527.4 			"/>
			<line class="st1" x1="343.7" y1="527.4" x2="406.8" y2="527.4"/>
			<polyline class="st0" points="407.1,527.4 407.9,527.4 407.9,528.1 			"/>
			<line class="st2" x1="407.9" y1="528.8" x2="407.9" y2="624.8"/>
		</g>
	</g>
	<rect x="363.7" y="550.3" class="st3" width="25.8" height="45.3"/>
	<text transform="matrix(1 0 0 1 362.3739 590.9898)" class="st4 st5 st6">0</text>
</g>
</svg>
