<?xml version="1.0" encoding="utf-8"?>
<!-- Generator: Adobe Illustrator 21.0.0, SVG Export Plug-In . SVG Version: 6.00 Build 0)  -->
<svg version="1.1" id="图层_1" xmlns="http://www.w3.org/2000/svg" xmlns:xlink="http://www.w3.org/1999/xlink" x="0px" y="0px"
	 viewBox="0 0 750 1334" style="enable-background:new 0 0 750 1334;" xml:space="preserve">
<style type="text/css">
	.st0{fill:none;stroke:#FFFFFF;stroke-width:0.75;stroke-linejoin:bevel;}
	.st1{fill:none;stroke:#FFFFFF;stroke-width:0.75;stroke-linejoin:bevel;stroke-dasharray:2.0051,0.9993;}
	.st2{fill:none;stroke:#FFFFFF;stroke-width:0.75;stroke-linejoin:bevel;stroke-dasharray:2.005,0.9993;}
	.st3{fill:none;}
	.st4{enable-background:new    ;}
	.st5{fill:#FFFFFF;}
	.st6{fill:none;stroke:#FFFFFF;stroke-width:0.75;stroke-linejoin:bevel;stroke-dasharray:1.9878,0.9907;}
	.st7{fill:none;stroke:#FFFFFF;stroke-width:0.75;stroke-linejoin:bevel;stroke-dasharray:2.0022,0.9979;}
	.st8{font-family:'Code-Bold';}
	.st9{font-size:66.0305px;}
</style>
<g>
	<g>
		<g>
			<polyline class="st0" points="2698.6,623.9 2698.6,624.9 2697.6,624.9 			"/>
			<line class="st1" x1="2696.6" y1="624.9" x2="2609.9" y2="624.9"/>
			<polyline class="st0" points="2609.4,624.9 2608.4,624.9 2608.4,623.9 			"/>
			<line class="st2" x1="2608.4" y1="622.9" x2="2608.4" y2="491.2"/>
			<polyline class="st0" points="2608.4,490.7 2608.4,489.7 2609.4,489.7 			"/>
			<line class="st1" x1="2610.4" y1="489.7" x2="2697.1" y2="489.7"/>
			<polyline class="st0" points="2697.6,489.7 2698.6,489.7 2698.6,490.7 			"/>
			<line class="st2" x1="2698.6" y1="491.7" x2="2698.6" y2="623.4"/>
		</g>
	</g>
	<rect x="2637.6" y="522" class="st3" width="35.4" height="62.2"/>
	<text transform="matrix(1 0 0 1 2638.7061 577.8041)" class="st5 st8" style="font-size:65.6636px;">7</text>
</g>
<g>
	<g>
		<g>
			<polyline class="st0" points="435.7,776.8 435.7,777.4 435.1,777.4 			"/>
			<line class="st6" x1="434.4" y1="777.4" x2="346.1" y2="777.4"/>
			<polyline class="st0" points="345.8,777.4 345.1,777.4 345.1,776.8 			"/>
			<line class="st7" x1="345.1" y1="776.1" x2="345.1" y2="642.4"/>
			<polyline class="st0" points="345.1,642.1 345.1,641.5 345.8,641.5 			"/>
			<line class="st6" x1="346.4" y1="641.5" x2="434.8" y2="641.5"/>
			<polyline class="st0" points="435.1,641.5 435.7,641.5 435.7,642.1 			"/>
			<line class="st7" x1="435.7" y1="642.7" x2="435.7" y2="776.4"/>
		</g>
	</g>
	<rect x="380.9" y="675.1" class="st3" width="19" height="61.1"/>
	<text transform="matrix(1 0 0 1 381.4724 731.233)" class="st5 st8 st9">1</text>
</g>
<g>
	<g>
		<g>
			<polyline class="st0" points="268.8,481.4 268.8,482 268.2,482 			"/>
			<line class="st6" x1="267.5" y1="482" x2="179.2" y2="482"/>
			<polyline class="st0" points="178.9,482 178.2,482 178.2,481.4 			"/>
			<line class="st7" x1="178.2" y1="480.8" x2="178.2" y2="347.1"/>
			<polyline class="st0" points="178.2,346.8 178.2,346.1 178.9,346.1 			"/>
			<line class="st6" x1="179.5" y1="346.1" x2="267.9" y2="346.1"/>
			<polyline class="st0" points="268.2,346.1 268.8,346.1 268.8,346.8 			"/>
			<line class="st7" x1="268.8" y1="347.4" x2="268.8" y2="481.1"/>
		</g>
	</g>
	<rect x="203.2" y="378.5" class="st3" width="35.8" height="62.6"/>
	<text transform="matrix(1 0 0 1 203.6333 434.6448)" class="st5 st8 st9">4</text>
</g>
<g>
	<g>
		<g>
			<polyline class="st0" points="2679.8,801.6 2679.8,802.2 2679.1,802.2 			"/>
			<line class="st6" x1="2678.5" y1="802.2" x2="2590.1" y2="802.2"/>
			<polyline class="st0" points="2589.8,802.2 2589.1,802.2 2589.1,801.6 			"/>
			<line class="st7" x1="2589.1" y1="800.9" x2="2589.1" y2="667.3"/>
			<polyline class="st0" points="2589.1,666.9 2589.1,666.3 2589.8,666.3 			"/>
			<line class="st6" x1="2590.4" y1="666.3" x2="2678.8" y2="666.3"/>
			<polyline class="st0" points="2679.1,666.3 2679.8,666.3 2679.8,666.9 			"/>
			<line class="st7" x1="2679.8" y1="667.6" x2="2679.8" y2="801.3"/>
		</g>
	</g>
	<rect x="2615.4" y="698.7" class="st3" width="38.1" height="62.6"/>
	<text transform="matrix(1 0 0 1 2616.5911 754.8871)" class="st5 st8 st9">6</text>
</g>
<g>
	<g>
		<g>
			<polyline class="st0" points="435.8,382.3 435.8,383 435.2,383 			"/>
			<line class="st6" x1="434.5" y1="383" x2="346.2" y2="383"/>
			<polyline class="st0" points="345.8,383 345.2,383 345.2,382.3 			"/>
			<line class="st7" x1="345.2" y1="381.7" x2="345.2" y2="248"/>
			<polyline class="st0" points="345.2,247.7 345.2,247 345.8,247 			"/>
			<line class="st6" x1="346.5" y1="247" x2="434.8" y2="247"/>
			<polyline class="st0" points="435.2,247 435.8,247 435.8,247.7 			"/>
			<line class="st7" x1="435.8" y1="248.3" x2="435.8" y2="382"/>
		</g>
	</g>
	<rect x="374.6" y="279.5" class="st3" width="35.6" height="62.6"/>
	<text transform="matrix(1 0 0 1 374.7532 335.6556)" class="st5 st8 st9">5</text>
</g>
<g>
	<g>
		<g>
			<polyline class="st0" points="268.4,678.6 268.4,679.3 267.7,679.3 			"/>
			<line class="st6" x1="267.1" y1="679.3" x2="178.7" y2="679.3"/>
			<polyline class="st0" points="178.4,679.3 177.7,679.3 177.7,678.6 			"/>
			<line class="st7" x1="177.7" y1="678" x2="177.7" y2="544.3"/>
			<polyline class="st0" points="177.7,544 177.7,543.3 178.4,543.3 			"/>
			<line class="st6" x1="179" y1="543.3" x2="267.4" y2="543.3"/>
			<polyline class="st0" points="267.7,543.3 268.4,543.3 268.4,544 			"/>
			<line class="st7" x1="268.4" y1="544.6" x2="268.4" y2="678.3"/>
		</g>
	</g>
	<rect x="203.2" y="576.5" class="st3" width="39.5" height="61.1"/>
	<text transform="matrix(1 0 0 1 205.4673 632.6653)" class="st5 st8 st9">2</text>
</g>
<g>
	<g>
		<g>
			<polyline class="st0" points="607.5,579.1 607.5,579.8 606.8,579.8 			"/>
			<line class="st6" x1="606.2" y1="579.8" x2="517.8" y2="579.8"/>
			<polyline class="st0" points="517.5,579.8 516.9,579.8 516.9,579.1 			"/>
			<line class="st7" x1="516.9" y1="578.5" x2="516.9" y2="444.8"/>
			<polyline class="st0" points="516.9,444.5 516.9,443.8 517.5,443.8 			"/>
			<line class="st6" x1="518.1" y1="443.8" x2="606.5" y2="443.8"/>
			<polyline class="st0" points="606.8,443.8 607.5,443.8 607.5,444.5 			"/>
			<line class="st7" x1="607.5" y1="445.1" x2="607.5" y2="578.8"/>
		</g>
	</g>
	<rect x="542.4" y="477" class="st3" width="39.5" height="61.1"/>
	<text transform="matrix(1 0 0 1 545.0489 533.1994)" class="st5 st8 st9">3</text>
</g>
</svg>
