<?xml version="1.0" encoding="utf-8"?>
<!-- Generator: Adobe Illustrator 21.0.0, SVG Export Plug-In . SVG Version: 6.00 Build 0)  -->
<svg version="1.1" id="图层_1" xmlns="http://www.w3.org/2000/svg" xmlns:xlink="http://www.w3.org/1999/xlink" x="0px" y="0px"
	 viewBox="0 0 750 1334" style="enable-background:new 0 0 750 1334;" xml:space="preserve">
<style type="text/css">
	.st0{fill:none;stroke:#FFFFFF;stroke-width:0.75;stroke-linejoin:bevel;}
	.st1{fill:none;stroke:#FFFFFF;stroke-width:0.75;stroke-linejoin:bevel;stroke-dasharray:2.0051,0.9993;}
	.st2{fill:none;stroke:#FFFFFF;stroke-width:0.75;stroke-linejoin:bevel;stroke-dasharray:2.005,0.9993;}
	.st3{fill:none;}
	.st4{fill:#FFFFFF;}
	.st5{font-family:'Code-Bold';}
	.st6{font-size:57.1647px;}
	.st7{fill:none;stroke:#FFFFFF;stroke-width:0.75;stroke-linejoin:bevel;stroke-dasharray:1.9878,0.9907;}
	.st8{fill:none;stroke:#FFFFFF;stroke-width:0.75;stroke-linejoin:bevel;stroke-dasharray:2.0022,0.9979;}
	.st9{font-size:57.4841px;}
</style>
<g>
	<g>
		<g>
			<polyline class="st0" points="405.9,478.2 405.9,479 405,479 			"/>
			<line class="st1" x1="404.1" y1="479" x2="328.7" y2="479"/>
			<polyline class="st0" points="328.2,479 327.4,479 327.4,478.2 			"/>
			<line class="st2" x1="327.4" y1="477.3" x2="327.4" y2="362.7"/>
			<polyline class="st0" points="327.4,362.2 327.4,361.3 328.2,361.3 			"/>
			<line class="st1" x1="329.1" y1="361.3" x2="404.6" y2="361.3"/>
			<polyline class="st0" points="405,361.3 405.9,361.3 405.9,362.2 			"/>
			<line class="st2" x1="405.9" y1="363.1" x2="405.9" y2="477.7"/>
		</g>
	</g>
	<rect x="352.8" y="389.5" class="st3" width="30.8" height="54.1"/>
	<text transform="matrix(1 0 0 1 353.7266 438.0156)" class="st4 st5 st6">7</text>
</g>
<g>
	<g>
		<g>
			<polyline class="st0" points="405.2,309.3 405.2,309.8 404.7,309.8 			"/>
			<line class="st7" x1="404.1" y1="309.8" x2="327.2" y2="309.8"/>
			<polyline class="st0" points="326.9,309.8 326.3,309.8 326.3,309.3 			"/>
			<line class="st8" x1="326.3" y1="308.7" x2="326.3" y2="192.3"/>
			<polyline class="st0" points="326.3,192 326.3,191.5 326.9,191.5 			"/>
			<line class="st7" x1="327.4" y1="191.5" x2="404.4" y2="191.5"/>
			<polyline class="st0" points="404.7,191.5 405.2,191.5 405.2,192 			"/>
			<line class="st8" x1="405.2" y1="192.6" x2="405.2" y2="309"/>
		</g>
	</g>
	<rect x="357.5" y="220.8" class="st3" width="16.5" height="53.2"/>
	<text transform="matrix(1 0 0 1 358.0166 269.6499)" class="st4 st5 st9">1</text>
</g>
<g>
	<g>
		<g>
			<polyline class="st0" points="406.3,648.4 406.3,648.9 405.7,648.9 			"/>
			<line class="st7" x1="405.1" y1="648.9" x2="328.3" y2="648.9"/>
			<polyline class="st0" points="328,648.9 327.4,648.9 327.4,648.4 			"/>
			<line class="st8" x1="327.4" y1="647.8" x2="327.4" y2="531.4"/>
			<polyline class="st0" points="327.4,531.2 327.4,530.6 328,530.6 			"/>
			<line class="st7" x1="328.5" y1="530.6" x2="405.5" y2="530.6"/>
			<polyline class="st0" points="405.7,530.6 406.3,530.6 406.3,531.2 			"/>
			<line class="st8" x1="406.3" y1="531.7" x2="406.3" y2="648.1"/>
		</g>
	</g>
	<rect x="349.2" y="558.8" class="st3" width="31.2" height="54.5"/>
	<text transform="matrix(1 0 0 1 349.5063 607.6802)" class="st4 st5 st9">4</text>
</g>
<g>
	<g>
		<g>
			<polyline class="st0" points="549.6,395.1 549.6,395.6 549,395.6 			"/>
			<line class="st7" x1="548.5" y1="395.6" x2="471.5" y2="395.6"/>
			<polyline class="st0" points="471.3,395.6 470.7,395.6 470.7,395.1 			"/>
			<line class="st8" x1="470.7" y1="394.5" x2="470.7" y2="278.2"/>
			<polyline class="st0" points="470.7,277.8 470.7,277.3 471.3,277.3 			"/>
			<line class="st7" x1="471.8" y1="277.3" x2="548.8" y2="277.3"/>
			<polyline class="st0" points="549,277.3 549.6,277.3 549.6,277.8 			"/>
			<line class="st8" x1="549.6" y1="278.4" x2="549.6" y2="394.8"/>
		</g>
	</g>
	<rect x="493.6" y="305.5" class="st3" width="33.2" height="54.5"/>
	<text transform="matrix(1 0 0 1 494.583 354.418)" class="st4 st5 st9">6</text>
</g>
<g>
	<g>
		<g>
			<polyline class="st0" points="260.8,394.8 260.8,395.4 260.3,395.4 			"/>
			<line class="st7" x1="259.7" y1="395.4" x2="182.8" y2="395.4"/>
			<polyline class="st0" points="182.5,395.4 182,395.4 182,394.8 			"/>
			<line class="st8" x1="182" y1="394.3" x2="182" y2="277.9"/>
			<polyline class="st0" points="182,277.7 182,277 182.5,277 			"/>
			<line class="st7" x1="183.1" y1="277" x2="260" y2="277"/>
			<polyline class="st0" points="260.3,277 260.8,277 260.8,277.7 			"/>
			<line class="st8" x1="260.8" y1="278.2" x2="260.8" y2="394.6"/>
		</g>
	</g>
	<rect x="207.6" y="305.3" class="st3" width="31" height="54.5"/>
	<text transform="matrix(1 0 0 1 207.6841 354.2104)" class="st4 st5 st9">5</text>
</g>
<g>
	<g>
		<g>
			<polyline class="st0" points="549.8,562.9 549.8,563.5 549.1,563.5 			"/>
			<line class="st7" x1="548.6" y1="563.5" x2="471.7" y2="563.5"/>
			<polyline class="st0" points="471.4,563.5 470.8,563.5 470.8,562.9 			"/>
			<line class="st8" x1="470.8" y1="562.4" x2="470.8" y2="446"/>
			<polyline class="st0" points="470.8,445.7 470.8,445.1 471.4,445.1 			"/>
			<line class="st7" x1="471.9" y1="445.1" x2="548.9" y2="445.1"/>
			<polyline class="st0" points="549.1,445.1 549.8,445.1 549.8,445.7 			"/>
			<line class="st8" x1="549.8" y1="446.2" x2="549.8" y2="562.6"/>
		</g>
	</g>
	<rect x="493" y="474" class="st3" width="34.4" height="53.2"/>
	<text transform="matrix(1 0 0 1 494.9766 522.8965)" class="st4 st5 st9">2</text>
</g>
<g>
	<g>
		<g>
			<polyline class="st0" points="262,563 262,563.6 261.4,563.6 			"/>
			<line class="st7" x1="260.9" y1="563.6" x2="183.9" y2="563.6"/>
			<polyline class="st0" points="183.7,563.6 183.1,563.6 183.1,563 			"/>
			<line class="st8" x1="183.1" y1="562.5" x2="183.1" y2="446.1"/>
			<polyline class="st0" points="183.1,445.9 183.1,445.2 183.7,445.2 			"/>
			<line class="st7" x1="184.2" y1="445.2" x2="261.1" y2="445.2"/>
			<polyline class="st0" points="261.4,445.2 262,445.2 262,445.9 			"/>
			<line class="st8" x1="262" y1="446.4" x2="262" y2="562.8"/>
		</g>
	</g>
	<rect x="205.3" y="474.1" class="st3" width="34.4" height="53.2"/>
	<text transform="matrix(1 0 0 1 207.625 523.0273)" class="st4 st5 st9">3</text>
</g>
</svg>
