<?xml version="1.0" encoding="utf-8"?>
<!-- Generator: Adobe Illustrator 21.0.0, SVG Export Plug-In . SVG Version: 6.00 Build 0)  -->
<svg version="1.1" id="图层_1" xmlns="http://www.w3.org/2000/svg" xmlns:xlink="http://www.w3.org/1999/xlink" x="0px" y="0px"
	 viewBox="0 0 750 1334" style="enable-background:new 0 0 750 1334;" xml:space="preserve">
<style type="text/css">
	.st0{fill:none;stroke:#FFFFFF;stroke-width:0.75;stroke-linejoin:bevel;}
	.st1{fill:none;stroke:#FFFFFF;stroke-width:0.75;stroke-linejoin:bevel;stroke-dasharray:2.0051,0.9993;}
	.st2{fill:none;stroke:#FFFFFF;stroke-width:0.75;stroke-linejoin:bevel;stroke-dasharray:2.005,0.9993;}
	.st3{fill:none;}
	.st4{fill:#FFFFFF;}
	.st5{font-family:'Code-Bold';}
	.st6{font-size:45.5593px;}
	.st7{fill:none;stroke:#FFFFFF;stroke-width:0.75;stroke-linejoin:bevel;stroke-dasharray:1.9878,0.9907;}
	.st8{fill:none;stroke:#FFFFFF;stroke-width:0.75;stroke-linejoin:bevel;stroke-dasharray:2.0022,0.9979;}
	.st9{font-size:45.8139px;}
</style>
<g>
	<g>
		<g>
			<polyline class="st0" points="349.7,528 350.4,528 350.4,528.7 			"/>
			<line class="st1" x1="350.4" y1="529.4" x2="350.4" y2="589.5"/>
			<polyline class="st0" points="350.4,589.8 350.4,590.5 349.7,590.5 			"/>
			<line class="st2" x1="349" y1="590.5" x2="257.6" y2="590.5"/>
			<polyline class="st0" points="257.3,590.5 256.6,590.5 256.6,589.8 			"/>
			<line class="st1" x1="256.6" y1="589.1" x2="256.6" y2="529"/>
			<polyline class="st0" points="256.6,528.7 256.6,528 257.3,528 			"/>
			<line class="st2" x1="258" y1="528" x2="349.4" y2="528"/>
		</g>
	</g>
	<rect x="279.5" y="545.8" class="st3" width="42.2" height="27.3"/>
	<text transform="matrix(4.489659e-11 -1 1 4.489659e-11 318.2169 571.5049)" class="st4 st5 st6">2</text>
</g>
<g>
	<g>
		<g>
			<polyline class="st0" points="522.6,714 522.2,714.5 521.7,714 			"/>
			<line class="st1" x1="521.2" y1="713.5" x2="478.6" y2="671"/>
			<polyline class="st0" points="478.4,670.7 477.9,670.2 478.4,669.7 			"/>
			<line class="st2" x1="478.9" y1="669.2" x2="543.5" y2="604.6"/>
			<polyline class="st0" points="543.7,604.4 544.2,603.9 544.7,604.4 			"/>
			<line class="st1" x1="545.2" y1="604.9" x2="587.8" y2="647.4"/>
			<polyline class="st0" points="588,647.7 588.5,648.2 588,648.6 			"/>
			<line class="st2" x1="587.5" y1="649.1" x2="522.9" y2="713.7"/>
		</g>
	</g>
	
		<rect x="514.6" y="645.7" transform="matrix(0.7071 -0.7071 0.7071 0.7071 -308.255 571.8358)" class="st3" width="43.2" height="24.6"/>
	<text transform="matrix(0.7071 0.7071 -0.7071 0.7071 515.8898 661.9684)" class="st4 st5 st6">7</text>
</g>
<g>
	<g>
		<g>
			<polyline class="st0" points="530.7,597.3 530.2,597.8 529.7,597.3 			"/>
			<line class="st1" x1="529.2" y1="596.8" x2="486.7" y2="554.3"/>
			<polyline class="st0" points="486.5,554.1 486,553.6 486.5,553.1 			"/>
			<line class="st2" x1="487" y1="552.6" x2="551.6" y2="488"/>
			<polyline class="st0" points="551.9,487.7 552.3,487.3 552.8,487.7 			"/>
			<line class="st1" x1="553.3" y1="488.2" x2="595.8" y2="530.7"/>
			<polyline class="st0" points="596.1,531 596.5,531.5 596.1,532 			"/>
			<line class="st2" x1="595.6" y1="532.4" x2="531" y2="597.1"/>
		</g>
	</g>
	
		<rect x="522.7" y="529.1" transform="matrix(0.7071 -0.7071 0.7071 0.7071 -223.4017 543.4042)" class="st3" width="43.2" height="24.6"/>
	<text transform="matrix(0.7071 0.7071 -0.7071 0.7071 523.5693 544.9001)" class="st4 st5 st6">8</text>
</g>
<g>
	<g>
		<g>
			<polyline class="st0" points="335.3,543.5 335.3,543.9 334.9,543.9 			"/>
			<line class="st7" x1="334.4" y1="543.9" x2="273.2" y2="543.9"/>
			<polyline class="st0" points="273,543.9 272.5,543.9 272.5,543.5 			"/>
			<line class="st8" x1="272.5" y1="543" x2="272.5" y2="450.3"/>
			<polyline class="st0" points="272.5,450.1 272.5,449.7 273,449.7 			"/>
			<line class="st7" x1="273.4" y1="449.7" x2="334.7" y2="449.7"/>
			<polyline class="st0" points="334.9,449.7 335.3,449.7 335.3,450.1 			"/>
			<line class="st8" x1="335.3" y1="450.5" x2="335.3" y2="543.3"/>
		</g>
	</g>
	<rect x="297.3" y="473" class="st3" width="13.2" height="42.4"/>
	<text transform="matrix(1 0 0 1 297.7467 511.9297)" class="st4 st5 st9">1</text>
</g>
<g>
	<g>
		<g>
			<polyline class="st0" points="336.6,708.9 336.6,709.3 336.2,709.3 			"/>
			<line class="st7" x1="335.7" y1="709.3" x2="274.4" y2="709.3"/>
			<polyline class="st0" points="274.2,709.3 273.7,709.3 273.7,708.9 			"/>
			<line class="st8" x1="273.7" y1="708.5" x2="273.7" y2="615.7"/>
			<polyline class="st0" points="273.7,615.5 273.7,615 274.2,615 			"/>
			<line class="st7" x1="274.6" y1="615" x2="336" y2="615"/>
			<polyline class="st0" points="336.2,615 336.6,615 336.6,615.5 			"/>
			<line class="st8" x1="336.6" y1="615.9" x2="336.6" y2="708.7"/>
		</g>
	</g>
	<rect x="291.1" y="637.5" class="st3" width="24.8" height="43.4"/>
	<text transform="matrix(1 0 0 1 291.3634 676.4512)" class="st4 st5 st9">4</text>
</g>
<g>
	<g>
		<polyline class="st0" points="465.4,543.6 465.4,544 464.9,544 		"/>
		<line class="st7" x1="464.5" y1="544" x2="403.2" y2="544"/>
		<polyline class="st0" points="403,544 402.5,544 402.5,543.6 		"/>
		<line class="st8" x1="402.5" y1="543.1" x2="402.5" y2="450.4"/>
		<polyline class="st0" points="402.5,450.1 402.5,449.7 403,449.7 		"/>
		<line class="st7" x1="403.4" y1="449.7" x2="464.7" y2="449.7"/>
		<polyline class="st0" points="464.9,449.7 465.4,449.7 465.4,450.1 		"/>
		<line class="st8" x1="465.4" y1="450.6" x2="465.4" y2="543.4"/>
	</g>
	<rect x="420.7" y="472.2" class="st3" width="26.4" height="43.4"/>
	<text transform="matrix(1 0 0 1 421.5573 511.1806)" class="st4 st5 st9">6</text>
</g>
<g>
	<g>
		<g>
			<polyline class="st0" points="205.3,542.9 205.3,543.4 204.9,543.4 			"/>
			<line class="st7" x1="204.4" y1="543.4" x2="143.2" y2="543.4"/>
			<polyline class="st0" points="142.9,543.4 142.5,543.4 142.5,542.9 			"/>
			<line class="st8" x1="142.5" y1="542.5" x2="142.5" y2="449.8"/>
			<polyline class="st0" points="142.5,449.6 142.5,449.1 142.9,449.1 			"/>
			<line class="st7" x1="143.4" y1="449.1" x2="204.6" y2="449.1"/>
			<polyline class="st0" points="204.9,449.1 205.3,449.1 205.3,449.6 			"/>
			<line class="st8" x1="205.3" y1="450" x2="205.3" y2="542.7"/>
		</g>
	</g>
	<rect x="162.9" y="471.6" class="st3" width="24.7" height="43.4"/>
	<text transform="matrix(1 0 0 1 162.9655 510.5644)" class="st4 st5 st9">5</text>
</g>
<g>
	<g>
		<g>
			<polyline class="st0" points="333.9,378.1 333.9,378.6 333.4,378.6 			"/>
			<line class="st7" x1="333" y1="378.6" x2="271.7" y2="378.6"/>
			<polyline class="st0" points="271.5,378.6 271,378.6 271,378.1 			"/>
			<line class="st8" x1="271" y1="377.7" x2="271" y2="284.9"/>
			<polyline class="st0" points="271,284.7 271,284.2 271.5,284.2 			"/>
			<line class="st7" x1="271.9" y1="284.2" x2="333.2" y2="284.2"/>
			<polyline class="st0" points="333.4,284.2 333.9,284.2 333.9,284.7 			"/>
			<line class="st8" x1="333.9" y1="285.1" x2="333.9" y2="377.9"/>
		</g>
	</g>
	<rect x="288.7" y="307.3" class="st3" width="27.4" height="42.4"/>
	<text transform="matrix(1 0 0 1 290.5573 346.2402)" class="st4 st5 st9">3</text>
</g>
<g>
	<g>
		<g>
			<polyline class="st0" points="518.7,386.3 518.2,386.8 517.7,386.3 			"/>
			<line class="st1" x1="517.2" y1="385.8" x2="474.7" y2="343.3"/>
			<polyline class="st0" points="474.5,343.1 474,342.6 474.5,342.1 			"/>
			<line class="st2" x1="474.9" y1="341.6" x2="539.6" y2="277"/>
			<polyline class="st0" points="539.8,276.8 540.3,276.3 540.8,276.8 			"/>
			<line class="st1" x1="541.3" y1="277.2" x2="583.8" y2="319.7"/>
			<polyline class="st0" points="584,320 584.5,320.5 584,321 			"/>
			<line class="st2" x1="583.5" y1="321.4" x2="518.9" y2="386.1"/>
		</g>
	</g>
	<g>
		
			<rect x="511.6" y="318.3" transform="matrix(0.7071 -0.7071 0.7071 0.7071 -77.6077 473.86)" class="st3" width="43.2" height="24.6"/>
		<text transform="matrix(0.7071 0.7071 -0.7071 0.7071 516.9352 339.536)" class="st4 st5 st6">0</text>
		<text transform="matrix(0.7073 0.6813 -0.6937 0.7202 505.0452 329.1184)" class="st4 st5 st9">1</text>
	</g>
</g>
<g>
	<g>
		<g>
			<polyline class="st0" points="530.7,488.5 530.2,489 529.7,488.5 			"/>
			<line class="st1" x1="529.2" y1="488" x2="486.7" y2="445.5"/>
			<polyline class="st0" points="486.5,445.3 486,444.8 486.5,444.3 			"/>
			<line class="st2" x1="487" y1="443.8" x2="551.6" y2="379.2"/>
			<polyline class="st0" points="551.9,378.9 552.3,378.5 552.8,378.9 			"/>
			<line class="st1" x1="553.3" y1="379.4" x2="595.8" y2="421.9"/>
			<polyline class="st0" points="596.1,422.2 596.5,422.7 596.1,423.1 			"/>
			<line class="st2" x1="595.6" y1="423.6" x2="531" y2="488.3"/>
		</g>
	</g>
	
		<rect x="523.7" y="420.5" transform="matrix(0.7071 -0.7071 0.7071 0.7071 -146.3399 512.3078)" class="st3" width="43.2" height="24.6"/>
	<text transform="matrix(0.7071 0.7071 -0.7071 0.7071 523.3799 436.5016)" class="st4 st5 st6">9</text>
</g>
</svg>
